o armor
s off
v -0.280000 0.000000 -0.500000
v -0.148400 0.110000 -0.500000
v 0.000000 0.230000 -0.500000
v 0.148400 0.110000 -0.500000
v 0.280000 0.000000 -0.500000
v 0.148400 -0.110000 -0.500000
v 0.000000 -0.110000 -0.500000
v -0.148400 -0.110000 -0.500000
v -0.880000 0.000000 -0.300000
v -0.466400 0.170000 -0.300000
v 0.000000 0.500000 -0.300000
v 0.466400 0.170000 -0.300000
v 0.880000 0.000000 -0.300000
v 0.466400 -0.170000 -0.300000
v 0.000000 -0.170000 -0.300000
v -0.466400 -0.170000 -0.300000
v -1.000000 0.000000 0.180000
v -0.530000 0.160000 0.180000
v 0.000000 0.580000 0.180000
v 0.530000 0.160000 0.180000
v 1.000000 0.000000 0.180000
v 0.530000 -0.160000 0.180000
v 0.000000 -0.160000 0.180000
v -0.530000 -0.160000 0.180000
v -0.480000 0.000000 0.500000
v -0.254400 0.090000 0.500000
v 0.000000 0.210000 0.500000
v 0.254400 0.090000 0.500000
v 0.480000 0.000000 0.500000
v 0.254400 -0.090000 0.500000
v 0.000000 -0.090000 0.500000
v -0.254400 -0.090000 0.500000
vn 0.400657 -0.479331 0.780843
f 1//1 2//1 10//1
vn 0.250634 -0.609777 0.751901
f 1//2 10//2 9//2
vn 0.433695 -0.536336 0.724053
f 2//3 3//3 11//3
vn 0.376523 -0.532152 0.758317
f 2//4 11//4 10//4
vn -0.396063 -0.489798 0.776680
f 3//5 4//5 12//5
vn -0.388134 -0.548563 0.740561
f 3//6 12//6 11//6
vn -0.295769 -0.353847 0.887307
f 4//7 5//7 13//7
vn -0.285121 -0.693682 0.661447
f 4//8 13//8 12//8
vn -0.400657 0.479331 0.780843
f 5//9 6//9 14//9
vn -0.250634 0.609777 0.751901
f 5//10 14//10 13//10
vn 0.000000 0.957826 0.287348
f 6//11 7//11 15//11
vn 0.000000 0.957826 0.287348
f 6//12 15//12 14//12
vn 0.000000 0.957826 0.287348
f 7//13 8//13 16//13
vn 0.000000 0.957826 0.287348
f 7//14 16//14 15//14
vn 0.295769 0.353847 0.887307
f 8//15 1//15 9//15
vn 0.285121 0.693682 0.661447
f 8//16 9//16 16//16
vn 0.379981 -0.924472 0.031088
f 9//17 10//17 18//17
vn 0.321223 -0.943592 0.080306
f 9//18 18//18 17//18
vn 0.572317 -0.808875 0.134812
f 10//19 11//19 19//19
vn 0.619735 -0.782046 0.065822
f 10//20 19//20 18//20
vn -0.576569 -0.814885 0.059419
f 11//21 12//21 20//21
vn -0.615850 -0.777144 0.129524
f 11//22 20//22 19//22
vn -0.378459 -0.920770 0.094615
f 12//23 13//23 21//23
vn -0.322179 -0.946400 0.022972
f 12//24 21//24 20//24
vn -0.379981 0.924472 0.031088
f 13//25 14//25 22//25
vn -0.321223 0.943592 0.080306
f 13//26 22//26 21//26
vn 0.000000 0.999783 -0.020829
f 14//27 15//27 23//27
vn 0.000000 0.999783 -0.020829
f 14//28 23//28 22//28
vn 0.000000 0.999783 -0.020829
f 15//29 16//29 24//29
vn 0.000000 0.999783 -0.020829
f 15//30 24//30 23//30
vn 0.378459 0.920770 0.094615
f 16//31 9//31 17//31
vn 0.322179 0.946400 0.022972
f 16//32 17//32 24//32
vn 0.290002 -0.851882 -0.436114
f 17//33 18//33 26//33
vn 0.317436 -0.795707 -0.515834
f 17//34 26//34 25//34
vn 0.460223 -0.580758 -0.671502
f 18//35 19//35 27//35
vn 0.371390 -0.787347 -0.492092
f 18//36 27//36 26//36
vn -0.507292 -0.640154 -0.576939
f 19//37 20//37 28//37
vn -0.294845 -0.625072 -0.722739
f 19//38 28//38 27//38
vn -0.285487 -0.838617 -0.463916
f 20//39 21//39 29//39
vn -0.328438 -0.823284 -0.462960
f 20//40 29//40 28//40
vn -0.290002 0.851882 -0.436114
f 21//41 22//41 30//41
vn -0.317436 0.795707 -0.515834
f 21//42 30//42 29//42
vn 0.000000 0.976900 -0.213697
f 22//43 23//43 31//43
vn 0.000000 0.976900 -0.213697
f 22//44 31//44 30//44
vn 0.000000 0.976900 -0.213697
f 23//45 24//45 32//45
vn 0.000000 0.976900 -0.213697
f 23//46 32//46 31//46
vn 0.285487 0.838617 -0.463916
f 24//47 17//47 25//47
vn 0.328438 0.823284 -0.462960
f 24//48 25//48 32//48
vn 0.000000 0.000000 1.000000
f 1//49 3//49 2//49
vn 0.000000 0.000000 1.000000
f 25//50 26//50 27//50
vn 0.000000 0.000000 1.000000
f 1//51 4//51 3//51
vn 0.000000 0.000000 -1.000000
f 25//52 27//52 28//52
vn 0.000000 0.000000 1.000000
f 1//53 5//53 4//53
vn 0.000000 0.000000 -1.000000
f 25//54 28//54 29//54
vn -0.000000 0.000000 1.000000
f 1//55 6//55 5//55
vn 0.000000 0.000000 -1.000000
f 25//56 29//56 30//56
vn 0.000000 0.000000 1.000000
f 1//57 7//57 6//57
vn 0.000000 0.000000 -1.000000
f 25//58 30//58 31//58
vn 0.000000 0.000000 1.000000
f 1//59 8//59 7//59
vn 0.000000 0.000000 -1.000000
f 25//60 31//60 32//60
