o beak
s off
v -0.780000 0.000000 -0.500000
v -0.413400 0.650000 -0.500000
v 0.000000 0.830000 -0.500000
v 0.413400 0.650000 -0.500000
v 0.780000 0.000000 -0.500000
v 0.413400 -0.650000 -0.500000
v 0.000000 -0.650000 -0.500000
v -0.413400 -0.650000 -0.500000
v -1.000000 0.000000 -0.180000
v -0.530000 0.720000 -0.180000
v 0.000000 1.020000 -0.180000
v 0.530000 0.720000 -0.180000
v 1.000000 0.000000 -0.180000
v 0.530000 -0.720000 -0.180000
v 0.000000 -0.720000 -0.180000
v -0.530000 -0.720000 -0.180000
v -0.550000 0.000000 0.220000
v -0.291500 0.420000 0.220000
v 0.000000 0.520000 0.220000
v 0.291500 0.420000 0.220000
v 0.550000 0.000000 0.220000
v 0.291500 -0.420000 0.220000
v 0.000000 -0.420000 0.220000
v -0.291500 -0.420000 0.220000
v -0.030000 0.000000 0.500000
v -0.015900 0.040000 0.500000
v 0.000000 0.040000 0.500000
v 0.015900 0.040000 0.500000
v 0.030000 0.000000 0.500000
v 0.015900 -0.040000 0.500000
v 0.000000 -0.040000 0.500000
v -0.015900 -0.040000 0.500000
vn 0.801670 -0.452142 0.391015
f 1//1 2//1 10//1
vn 0.725710 -0.473728 0.498926
f 1//2 10//2 9//2
vn 0.350625 -0.805268 0.478128
f 2//3 3//3 11//3
vn 0.462010 -0.816218 0.346893
f 2//4 11//4 10//4
vn -0.377265 -0.866453 0.327003
f 3//5 4//5 12//5
vn -0.437628 -0.773143 0.459054
f 3//6 12//6 11//6
vn -0.747278 -0.421465 0.513754
f 4//7 5//7 13//7
vn -0.770751 -0.503129 0.390902
f 4//8 13//8 12//8
vn -0.801670 0.452142 0.391015
f 5//9 6//9 14//9
vn -0.725710 0.473728 0.498926
f 5//10 14//10 13//10
vn 0.000000 0.976900 0.213697
f 6//11 7//11 15//11
vn 0.000000 0.976900 0.213697
f 6//12 15//12 14//12
vn 0.000000 0.976900 0.213697
f 7//13 8//13 16//13
vn 0.000000 0.976900 0.213697
f 7//14 16//14 15//14
vn 0.747278 0.421465 0.513754
f 8//15 1//15 9//15
vn 0.770751 0.503129 0.390902
f 8//16 9//16 16//16
vn 0.619560 -0.404435 -0.672739
f 9//17 10//17 18//17
vn 0.614941 -0.378482 -0.691809
f 9//18 18//18 17//18
vn 0.333373 -0.588959 -0.736199
f 10//19 11//19 19//19
vn 0.240845 -0.702063 -0.670151
f 10//20 19//20 18//20
vn -0.357775 -0.632069 -0.687376
f 11//21 12//21 20//21
vn -0.209546 -0.610826 -0.763533
f 11//22 20//22 19//22
vn -0.609513 -0.397877 -0.685702
f 12//23 13//23 21//23
vn -0.632725 -0.389427 -0.669332
f 12//24 21//24 20//24
vn -0.619560 0.404435 -0.672739
f 13//25 14//25 22//25
vn -0.614941 0.378482 -0.691809
f 13//26 22//26 21//26
vn 0.000000 0.800000 -0.600000
f 14//27 15//27 23//27
vn 0.000000 0.800000 -0.600000
f 14//28 23//28 22//28
vn 0.000000 0.800000 -0.600000
f 15//29 16//29 24//29
vn 0.000000 0.800000 -0.600000
f 15//30 24//30 23//30
vn 0.609513 0.397877 -0.685702
f 16//31 9//31 17//31
vn 0.632725 0.389427 -0.669332
f 16//32 17//32 24//32
vn 0.461774 -0.284211 -0.840232
f 17//33 18//33 26//33
vn 0.467615 -0.164834 -0.868427
f 17//34 26//34 25//34
vn 0.170329 -0.496508 -0.851157
f 18//35 19//35 27//35
vn 0.000000 -0.593199 -0.805056
f 18//36 27//36 26//36
vn -0.171740 -0.500623 -0.848459
f 19//37 20//37 28//37
vn 0.000000 -0.503871 -0.863779
f 19//38 28//38 27//38
vn -0.455120 -0.280115 -0.845223
f 20//39 21//39 29//39
vn -0.553536 -0.195121 -0.809645
f 20//40 29//40 28//40
vn -0.461774 0.284211 -0.840232
f 21//41 22//41 30//41
vn -0.467615 0.164834 -0.868427
f 21//42 30//42 29//42
vn 0.000000 0.593199 -0.805056
f 22//43 23//43 31//43
vn 0.000000 0.593199 -0.805056
f 22//44 31//44 30//44
vn 0.000000 0.593199 -0.805056
f 23//45 24//45 32//45
vn 0.000000 0.593199 -0.805056
f 23//46 32//46 31//46
vn 0.455120 0.280115 -0.845223
f 24//47 17//47 25//47
vn 0.553536 0.195121 -0.809645
f 24//48 25//48 32//48
vn 0.000000 0.000000 1.000000
f 1//49 3//49 2//49
vn 0.000000 0.000000 -1.000000
f 25//50 26//50 27//50
vn 0.000000 0.000000 1.000000
f 1//51 4//51 3//51
vn 0.000000 0.000000 -1.000000
f 25//52 27//52 28//52
vn 0.000000 0.000000 1.000000
f 1//53 5//53 4//53
vn 0.000000 0.000000 -1.000000
f 25//54 28//54 29//54
vn -0.000000 0.000000 1.000000
f 1//55 6//55 5//55
vn 0.000000 0.000000 -1.000000
f 25//56 29//56 30//56
vn 0.000000 0.000000 1.000000
f 1//57 7//57 6//57
vn 0.000000 0.000000 -1.000000
f 25//58 30//58 31//58
vn 0.000000 0.000000 1.000000
f 1//59 8//59 7//59
vn 0.000000 0.000000 -1.000000
f 25//60 31//60 32//60
