o covert
s off
v -0.240000 0.000000 -0.500000
v -0.127200 0.120000 -0.500000
v 0.000000 0.140000 -0.500000
v 0.127200 0.120000 -0.500000
v 0.240000 0.000000 -0.500000
v 0.127200 -0.120000 -0.500000
v 0.000000 -0.120000 -0.500000
v -0.127200 -0.120000 -0.500000
v -0.800000 0.000000 -0.270000
v -0.424000 0.200000 -0.270000
v 0.000000 0.300000 -0.270000
v 0.424000 0.200000 -0.270000
v 0.800000 0.000000 -0.270000
v 0.424000 -0.200000 -0.270000
v 0.000000 -0.200000 -0.270000
v -0.424000 -0.200000 -0.270000
v -1.000000 0.000000 0.050000
v -0.530000 0.200000 0.050000
v 0.000000 0.350000 0.050000
v 0.530000 0.200000 0.050000
v 1.000000 0.000000 0.050000
v 0.530000 -0.200000 0.050000
v 0.000000 -0.200000 0.050000
v -0.530000 -0.200000 0.050000
v -0.720000 0.000000 0.300000
v -0.381600 0.130000 0.300000
v 0.000000 0.200000 0.300000
v 0.381600 0.130000 0.300000
v 0.720000 0.000000 0.300000
v 0.381600 -0.130000 0.300000
v 0.000000 -0.130000 0.300000
v -0.381600 -0.130000 0.300000
v -0.080000 0.000000 0.500000
v -0.042400 0.040000 0.500000
v 0.000000 0.040000 0.500000
v 0.042400 0.040000 0.500000
v 0.080000 0.000000 0.500000
v 0.042400 -0.040000 0.500000
v 0.000000 -0.040000 0.500000
v -0.042400 -0.040000 0.500000
vn 0.471428 -0.443142 0.762483
f 1//1 2//1 10//1
vn 0.309158 -0.581218 0.752733
f 1//2 10//2 9//2
vn 0.128011 -0.814151 0.566366
f 2//3 3//3 11//3
vn 0.193804 -0.821730 0.535911
f 2//4 11//4 10//4
vn -0.136440 -0.867756 0.477895
f 3//5 4//5 12//5
vn -0.190080 -0.805939 0.560653
f 3//6 12//6 11//6
vn -0.357788 -0.336320 0.871135
f 4//7 5//7 13//7
vn -0.346794 -0.651973 0.674288
f 4//8 13//8 12//8
vn -0.471428 0.443142 0.762483
f 5//9 6//9 14//9
vn -0.309158 0.581218 0.752733
f 5//10 14//10 13//10
vn 0.000000 0.944497 0.328521
f 6//11 7//11 15//11
vn 0.000000 0.944497 0.328521
f 6//12 15//12 14//12
vn 0.000000 0.944497 0.328521
f 7//13 8//13 16//13
vn 0.000000 0.944497 0.328521
f 7//14 16//14 15//14
vn 0.357788 0.336320 0.871135
f 8//15 1//15 9//15
vn 0.346794 0.651973 0.674288
f 8//16 9//16 16//16
vn 0.464032 -0.872380 0.153711
f 9//17 10//17 18//17
vn 0.380332 -0.893780 0.237707
f 9//18 18//18 17//18
vn 0.226942 -0.962233 0.150349
f 10//19 11//19 19//19
vn 0.271221 -0.958315 0.089842
f 10//20 19//20 18//20
vn -0.228890 -0.970495 0.075820
f 11//21 12//21 20//21
vn -0.269296 -0.951512 0.148674
f 11//22 20//22 19//22
vn -0.450605 -0.847137 0.281628
f 12//23 13//23 21//23
vn -0.388303 -0.912511 0.128625
f 12//24 21//24 20//24
vn -0.464032 0.872380 0.153711
f 13//25 14//25 22//25
vn -0.380332 0.893780 0.237707
f 13//26 22//26 21//26
vn 0.000000 1.000000 0.000000
f 14//27 15//27 23//27
vn 0.000000 1.000000 -0.000000
f 14//28 23//28 22//28
vn 0.000000 1.000000 0.000000
f 15//29 16//29 24//29
vn 0.000000 1.000000 -0.000000
f 15//30 24//30 23//30
vn 0.450605 0.847137 0.281628
f 16//31 9//31 17//31
vn 0.388303 0.912511 0.128625
f 16//32 17//32 24//32
vn 0.351603 -0.826267 -0.440066
f 17//33 18//33 26//33
vn 0.332772 -0.866230 -0.372704
f 17//34 26//34 25//34
vn 0.235841 -0.833304 -0.499983
f 18//35 19//35 27//35
vn 0.168520 -0.918675 -0.357263
f 18//36 27//36 26//36
vn -0.250077 -0.883606 -0.395856
f 19//37 20//37 28//37
vn -0.155386 -0.847078 -0.508247
f 19//38 28//38 27//38
vn -0.358589 -0.842684 -0.401619
f 20//39 21//39 29//39
vn -0.324018 -0.843444 -0.428502
f 20//40 29//40 28//40
vn -0.351603 0.826267 -0.440066
f 21//41 22//41 30//41
vn -0.332772 0.866230 -0.372704
f 21//42 30//42 29//42
vn 0.000000 0.962964 -0.269630
f 22//43 23//43 31//43
vn 0.000000 0.962964 -0.269630
f 22//44 31//44 30//44
vn 0.000000 0.962964 -0.269630
f 23//45 24//45 32//45
vn 0.000000 0.962964 -0.269630
f 23//46 32//46 31//46
vn 0.358589 0.842684 -0.401619
f 24//47 17//47 25//47
vn 0.324018 0.843444 -0.428502
f 24//48 25//48 32//48
vn 0.250016 -0.650812 -0.716893
f 25//49 26//49 34//49
vn 0.287200 -0.269968 -0.919040
f 25//50 34//50 33//50
vn 0.141794 -0.772979 -0.618383
f 26//51 27//51 35//51
vn 0.000000 -0.911922 -0.410365
f 26//52 35//52 34//52
vn -0.144438 -0.787392 -0.599293
f 27//53 28//53 36//53
vn 0.000000 -0.780869 -0.624695
f 27//54 36//54 35//54
vn -0.235598 -0.613278 -0.753912
f 28//55 29//55 37//55
vn -0.396098 -0.372332 -0.839331
f 28//56 37//56 36//56
vn -0.250016 0.650812 -0.716893
f 29//57 30//57 38//57
vn -0.287200 0.269968 -0.919040
f 29//58 38//58 37//58
vn 0.000000 0.911922 -0.410365
f 30//59 31//59 39//59
vn 0.000000 0.911922 -0.410365
f 30//60 39//60 38//60
vn 0.000000 0.911922 -0.410365
f 31//61 32//61 40//61
vn 0.000000 0.911922 -0.410365
f 31//62 40//62 39//62
vn 0.235598 0.613278 -0.753912
f 32//63 25//63 33//63
vn 0.396098 0.372332 -0.839331
f 32//64 33//64 40//64
vn 0.000000 0.000000 1.000000
f 1//65 3//65 2//65
vn 0.000000 0.000000 -1.000000
f 33//66 34//66 35//66
vn 0.000000 0.000000 1.000000
f 1//67 4//67 3//67
vn 0.000000 0.000000 -1.000000
f 33//68 35//68 36//68
vn 0.000000 0.000000 1.000000
f 1//69 5//69 4//69
vn 0.000000 0.000000 -1.000000
f 33//70 36//70 37//70
vn -0.000000 0.000000 1.000000
f 1//71 6//71 5//71
vn 0.000000 0.000000 -1.000000
f 33//72 37//72 38//72
vn 0.000000 0.000000 1.000000
f 1//73 7//73 6//73
vn 0.000000 0.000000 -1.000000
f 33//74 38//74 39//74
vn 0.000000 0.000000 1.000000
f 1//75 8//75 7//75
vn 0.000000 0.000000 -1.000000
f 33//76 39//76 40//76
