o CurvedFeather
v -0.09 0 -0.5
v 0 0.09 -0.5
v 0.09 0 -0.5
v 0 -0.09 -0.5
v -0.35 0 -0.3
v 0 0.35 -0.3
v 0.35 0 -0.3
v 0 -0.35 -0.3
v -0.5 0 -0.09999999999999998
v 0 0.5 -0.09999999999999998
v 0.5 0 -0.09999999999999998
v 0 -0.5 -0.09999999999999998
v -0.46 0 0.10000000000000009
v 0 0.46 0.10000000000000009
v 0.46 0 0.10000000000000009
v 0 -0.46 0.10000000000000009
v -0.3 0 0.30000000000000004
v 0 0.3 0.30000000000000004
v 0.3 0 0.30000000000000004
v 0 -0.3 0.30000000000000004
v -0.015 0 0.5
v 0 0.015 0.5
v 0.015 0 0.5
v 0 -0.015 0.5
s off
vn 0.520579 -0.520579 0.676753
vn 0.520579 -0.520579 0.676753
vn -0.520579 -0.520579 0.676753
vn -0.520579 -0.520579 0.676753
vn -0.520579 0.520579 0.676753
vn -0.520579 0.520579 0.676753
vn 0.520579 0.520579 0.676753
vn 0.520579 0.520579 0.676753
vn 0.624695 -0.624695 0.468521
vn 0.624695 -0.624695 0.468521
vn -0.624695 -0.624695 0.468521
vn -0.624695 -0.624695 0.468521
vn -0.624695 0.624695 0.468521
vn -0.624695 0.624695 0.468521
vn 0.624695 0.624695 0.468521
vn 0.624695 0.624695 0.468521
vn 0.700140 -0.700140 -0.140028
vn 0.700140 -0.700140 -0.140028
vn -0.700140 -0.700140 -0.140028
vn -0.700140 -0.700140 -0.140028
vn -0.700140 0.700140 -0.140028
vn -0.700140 0.700140 -0.140028
vn 0.700140 0.700140 -0.140028
vn 0.700140 0.700140 -0.140028
vn 0.615457 -0.615457 -0.492366
vn 0.615457 -0.615457 -0.492366
vn -0.615457 -0.615457 -0.492366
vn -0.615457 -0.615457 -0.492366
vn -0.615457 0.615457 -0.492366
vn -0.615457 0.615457 -0.492366
vn 0.615457 0.615457 -0.492366
vn 0.615457 0.615457 -0.492366
vn 0.498097 -0.498097 -0.709788
vn 0.498097 -0.498097 -0.709788
vn -0.498097 -0.498097 -0.709788
vn -0.498097 -0.498097 -0.709788
vn -0.498097 0.498097 -0.709788
vn -0.498097 0.498097 -0.709788
vn 0.498097 0.498097 -0.709788
vn 0.498097 0.498097 -0.709788
vn 0.000000 0.000000 1.000000
vn 0.000000 0.000000 1.000000
vn 0.000000 0.000000 -1.000000
vn 0.000000 0.000000 -1.000000
f 1//1 2//1 6//1
f 1//2 6//2 5//2
f 2//3 3//3 7//3
f 2//4 7//4 6//4
f 3//5 4//5 8//5
f 3//6 8//6 7//6
f 4//7 1//7 5//7
f 4//8 5//8 8//8
f 5//9 6//9 10//9
f 5//10 10//10 9//10
f 6//11 7//11 11//11
f 6//12 11//12 10//12
f 7//13 8//13 12//13
f 7//14 12//14 11//14
f 8//15 5//15 9//15
f 8//16 9//16 12//16
f 9//17 10//17 14//17
f 9//18 14//18 13//18
f 10//19 11//19 15//19
f 10//20 15//20 14//20
f 11//21 12//21 16//21
f 11//22 16//22 15//22
f 12//23 9//23 13//23
f 12//24 13//24 16//24
f 13//25 14//25 18//25
f 13//26 18//26 17//26
f 14//27 15//27 19//27
f 14//28 19//28 18//28
f 15//29 16//29 20//29
f 15//30 20//30 19//30
f 16//31 13//31 17//31
f 16//32 17//32 20//32
f 17//33 18//33 22//33
f 17//34 22//34 21//34
f 18//35 19//35 23//35
f 18//36 23//36 22//36
f 19//37 20//37 24//37
f 19//38 24//38 23//38
f 20//39 17//39 21//39
f 20//40 21//40 24//40
f 1//41 4//41 3//41
f 1//42 3//42 2//42
f 21//43 22//43 23//43
f 21//44 23//44 24//44
