o horn
s off
v -0.640000 0.000000 -0.500000
v -0.339200 0.650000 -0.500000
v 0.000000 0.650000 -0.500000
v 0.339200 0.650000 -0.500000
v 0.640000 0.000000 -0.500000
v 0.339200 -0.650000 -0.500000
v 0.000000 -0.650000 -0.500000
v -0.339200 -0.650000 -0.500000
v -0.700000 0.000000 -0.200000
v -0.371000 0.680000 -0.200000
v 0.000000 0.720000 -0.200000
v 0.371000 0.680000 -0.200000
v 0.700000 0.000000 -0.200000
v 0.371000 -0.680000 -0.200000
v 0.000000 -0.680000 -0.200000
v -0.371000 -0.680000 -0.200000
v -0.330000 0.000000 0.180000
v -0.174900 0.380000 0.180000
v 0.000000 0.400000 0.180000
v 0.174900 0.380000 0.180000
v 0.330000 0.000000 0.180000
v 0.174900 -0.380000 0.180000
v 0.000000 -0.380000 0.180000
v -0.174900 -0.380000 0.180000
v -0.025000 0.000000 0.500000
v -0.013250 0.030000 0.500000
v 0.000000 0.030000 0.500000
v 0.013250 0.030000 0.500000
v 0.025000 0.000000 0.500000
v 0.013250 -0.030000 0.500000
v 0.000000 -0.030000 0.500000
v -0.013250 -0.030000 0.500000
vn 0.898990 -0.416025 0.136895
f 1//1 2//1 10//1
vn 0.885933 -0.428635 0.177187
f 1//2 10//2 9//2
vn 0.000000 -0.973841 0.227230
f 2//3 3//3 11//3
vn 0.106544 -0.988192 0.110113
f 2//4 11//4 10//4
vn 0.000000 -0.995037 0.099504
f 3//5 4//5 12//5
vn -0.104422 -0.968517 0.225987
f 3//6 12//6 11//6
vn -0.892944 -0.413227 0.178589
f 4//7 5//7 13//7
vn -0.891607 -0.431381 0.137648
f 4//8 13//8 12//8
vn -0.898990 0.416025 0.136895
f 5//9 6//9 14//9
vn -0.885933 0.428635 0.177187
f 5//10 14//10 13//10
vn 0.000000 0.995037 0.099504
f 6//11 7//11 15//11
vn 0.000000 0.995037 0.099504
f 6//12 15//12 14//12
vn 0.000000 0.995037 0.099504
f 7//13 8//13 16//13
vn 0.000000 0.995037 0.099504
f 7//14 16//14 15//14
vn 0.892944 0.413227 0.178589
f 8//15 1//15 9//15
vn 0.891607 0.431381 0.137648
f 8//16 9//16 16//16
vn 0.700050 -0.338701 -0.628658
f 9//17 10//17 18//17
vn 0.687670 -0.280678 -0.669574
f 9//18 18//18 17//18
vn 0.082191 -0.762323 -0.641956
f 10//19 11//19 19//19
vn 0.086864 -0.759627 -0.644532
f 10//20 19//20 18//20
vn -0.082070 -0.761202 -0.643301
f 11//21 12//21 20//21
vn -0.087136 -0.762002 -0.641686
f 11//22 20//22 19//22
vn -0.676952 -0.327525 -0.659138
f 12//23 13//23 21//23
vn -0.731407 -0.298530 -0.613126
f 12//24 21//24 20//24
vn -0.700050 0.338701 -0.628658
f 13//25 14//25 22//25
vn -0.687670 0.280678 -0.669574
f 13//26 22//26 21//26
vn 0.000000 0.784883 -0.619644
f 14//27 15//27 23//27
vn 0.000000 0.784883 -0.619644
f 14//28 23//28 22//28
vn 0.000000 0.784883 -0.619644
f 15//29 16//29 24//29
vn 0.000000 0.784883 -0.619644
f 15//30 24//30 23//30
vn 0.676952 0.327525 -0.659138
f 16//31 9//31 17//31
vn 0.731407 0.298530 -0.613126
f 16//32 17//32 24//32
vn 0.694697 -0.283546 -0.661059
f 17//33 18//33 26//33
vn 0.696420 -0.272765 -0.663776
f 17//34 26//34 25//34
vn 0.074595 -0.652329 -0.754256
f 18//35 19//35 27//35
vn 0.000000 -0.674769 -0.738029
f 18//36 27//36 26//36
vn -0.074769 -0.653851 -0.752920
f 19//37 20//37 28//37
vn 0.000000 -0.654152 -0.756363
f 19//38 28//38 27//38
vn -0.694203 -0.283345 -0.661663
f 20//39 21//39 29//39
vn -0.702745 -0.275242 -0.656042
f 20//40 29//40 28//40
vn -0.694697 0.283546 -0.661059
f 21//41 22//41 30//41
vn -0.696420 0.272765 -0.663776
f 21//42 30//42 29//42
vn 0.000000 0.674769 -0.738029
f 22//43 23//43 31//43
vn 0.000000 0.674769 -0.738029
f 22//44 31//44 30//44
vn 0.000000 0.674769 -0.738029
f 23//45 24//45 32//45
vn 0.000000 0.674769 -0.738029
f 23//46 32//46 31//46
vn 0.694203 0.283345 -0.661663
f 24//47 17//47 25//47
vn 0.702745 0.275242 -0.656042
f 24//48 25//48 32//48
vn 0.000000 0.000000 1.000000
f 1//49 3//49 2//49
vn 0.000000 0.000000 -1.000000
f 25//50 26//50 27//50
vn 0.000000 0.000000 1.000000
f 1//51 4//51 3//51
vn 0.000000 0.000000 -1.000000
f 25//52 27//52 28//52
vn 0.000000 0.000000 1.000000
f 1//53 5//53 4//53
vn 0.000000 0.000000 -1.000000
f 25//54 28//54 29//54
vn -0.000000 0.000000 1.000000
f 1//55 6//55 5//55
vn 0.000000 0.000000 -1.000000
f 25//56 29//56 30//56
vn 0.000000 0.000000 1.000000
f 1//57 7//57 6//57
vn 0.000000 0.000000 -1.000000
f 25//58 30//58 31//58
vn 0.000000 0.000000 1.000000
f 1//59 8//59 7//59
vn 0.000000 0.000000 -1.000000
f 25//60 31//60 32//60
