o link
s off
v -0.280000 0.000000 -0.500000
v -0.148400 0.340000 -0.500000
v 0.000000 0.340000 -0.500000
v 0.148400 0.340000 -0.500000
v 0.280000 0.000000 -0.500000
v 0.148400 -0.340000 -0.500000
v 0.000000 -0.340000 -0.500000
v -0.148400 -0.340000 -0.500000
v -0.850000 0.000000 -0.350000
v -0.450500 0.820000 -0.350000
v 0.000000 0.860000 -0.350000
v 0.450500 0.820000 -0.350000
v 0.850000 0.000000 -0.350000
v 0.450500 -0.820000 -0.350000
v 0.000000 -0.820000 -0.350000
v -0.450500 -0.820000 -0.350000
v -1.000000 0.000000 0.260000
v -0.530000 0.900000 0.260000
v 0.000000 0.940000 0.260000
v 0.530000 0.900000 0.260000
v 1.000000 0.000000 0.260000
v 0.530000 -0.900000 0.260000
v 0.000000 -0.900000 0.260000
v -0.530000 -0.900000 0.260000
v -0.530000 0.000000 0.500000
v -0.280900 0.530000 0.500000
v 0.000000 0.530000 0.500000
v 0.280900 0.530000 0.500000
v 0.530000 0.000000 0.500000
v 0.280900 -0.530000 0.500000
v 0.000000 -0.530000 0.500000
v -0.280900 -0.530000 0.500000
vn 0.291989 -0.113017 0.949721
f 1//1 2//1 10//1
vn 0.252559 -0.123046 0.959726
f 1//2 10//2 9//2
vn 0.000000 -0.277161 0.960824
f 2//3 3//3 11//3
vn 0.025190 -0.283703 0.958581
f 2//4 11//4 10//4
vn 0.000000 -0.298275 0.954480
f 3//5 4//5 12//5
vn -0.024602 -0.277077 0.960533
f 3//6 12//6 11//6
vn -0.253268 -0.098029 0.962417
f 4//7 5//7 13//7
vn -0.267224 -0.130190 0.954799
f 4//8 13//8 12//8
vn -0.291989 0.113017 0.949721
f 5//9 6//9 14//9
vn -0.252559 0.123046 0.959726
f 5//10 14//10 13//10
vn 0.000000 0.298275 0.954480
f 6//11 7//11 15//11
vn 0.000000 0.298275 0.954480
f 6//12 15//12 14//12
vn 0.000000 0.298275 0.954480
f 7//13 8//13 16//13
vn 0.000000 0.298275 0.954480
f 7//14 16//14 15//14
vn 0.253268 0.098029 0.962417
f 8//15 1//15 9//15
vn 0.267224 0.130190 0.954799
f 8//16 9//16 16//16
vn 0.885587 -0.431453 0.172001
f 9//17 10//17 18//17
vn 0.866074 -0.452283 0.212969
f 9//18 18//18 17//18
vn 0.087697 -0.987689 0.129533
f 10//19 11//19 19//19
vn 0.074525 -0.987454 0.139215
f 10//20 19//20 18//20
vn -0.087562 -0.986166 0.140745
f 11//21 12//21 20//21
vn -0.074622 -0.988745 0.129671
f 11//22 20//22 19//22
vn -0.877792 -0.427656 0.215851
f 12//23 13//23 21//23
vn -0.872957 -0.455877 0.173558
f 12//24 21//24 20//24
vn -0.885587 0.431453 0.172001
f 13//25 14//25 22//25
vn -0.866074 0.452283 0.212969
f 13//26 22//26 21//26
vn 0.000000 0.991510 0.130034
f 14//27 15//27 23//27
vn 0.000000 0.991510 0.130034
f 14//28 23//28 22//28
vn 0.000000 0.991510 0.130034
f 15//29 16//29 24//29
vn 0.000000 0.991510 0.130034
f 15//30 24//30 23//30
vn 0.877792 0.427656 0.215851
f 16//31 9//31 17//31
vn 0.872957 0.455877 0.173558
f 16//32 17//32 24//32
vn 0.462775 -0.241671 -0.852898
f 17//33 18//33 26//33
vn 0.444731 -0.209024 -0.870932
f 17//34 26//34 25//34
vn 0.038099 -0.504812 -0.862388
f 18//35 19//35 27//35
vn 0.000000 -0.544191 -0.838961
f 18//36 27//36 26//36
vn -0.039612 -0.524857 -0.850268
f 19//37 20//37 28//37
vn 0.000000 -0.505179 -0.863014
f 19//38 28//38 27//38
vn -0.442470 -0.231068 -0.866503
f 20//39 21//39 29//39
vn -0.480719 -0.225938 -0.847267
f 20//40 29//40 28//40
vn -0.462775 0.241671 -0.852898
f 21//41 22//41 30//41
vn -0.444731 0.209024 -0.870932
f 21//42 30//42 29//42
vn 0.000000 0.544191 -0.838961
f 22//43 23//43 31//43
vn 0.000000 0.544191 -0.838961
f 22//44 31//44 30//44
vn 0.000000 0.544191 -0.838961
f 23//45 24//45 32//45
vn 0.000000 0.544191 -0.838961
f 23//46 32//46 31//46
vn 0.442470 0.231068 -0.866503
f 24//47 17//47 25//47
vn 0.480719 0.225938 -0.847267
f 24//48 25//48 32//48
vn 0.000000 0.000000 1.000000
f 1//49 3//49 2//49
vn 0.000000 0.000000 -1.000000
f 25//50 26//50 27//50
vn 0.000000 0.000000 1.000000
f 1//51 4//51 3//51
vn 0.000000 0.000000 -1.000000
f 25//52 27//52 28//52
vn 0.000000 0.000000 1.000000
f 1//53 5//53 4//53
vn 0.000000 0.000000 -1.000000
f 25//54 28//54 29//54
vn -0.000000 0.000000 1.000000
f 1//55 6//55 5//55
vn 0.000000 0.000000 -1.000000
f 25//56 29//56 30//56
vn 0.000000 0.000000 1.000000
f 1//57 7//57 6//57
vn 0.000000 0.000000 -1.000000
f 25//58 30//58 31//58
vn 0.000000 0.000000 1.000000
f 1//59 8//59 7//59
vn 0.000000 0.000000 -1.000000
f 25//60 31//60 32//60
