o primary
s off
v -0.110000 0.000000 -0.500000
v -0.058300 0.090000 -0.500000
v 0.000000 0.090000 -0.500000
v 0.058300 0.090000 -0.500000
v 0.110000 0.000000 -0.500000
v 0.058300 -0.090000 -0.500000
v 0.000000 -0.090000 -0.500000
v -0.058300 -0.090000 -0.500000
v -0.700000 0.000000 -0.250000
v -0.371000 0.130000 -0.250000
v 0.000000 0.170000 -0.250000
v 0.371000 0.130000 -0.250000
v 0.700000 0.000000 -0.250000
v 0.371000 -0.130000 -0.250000
v 0.000000 -0.130000 -0.250000
v -0.371000 -0.130000 -0.250000
v -1.000000 0.000000 0.040000
v -0.530000 0.160000 0.040000
v 0.000000 0.260000 0.040000
v 0.530000 0.160000 0.040000
v 1.000000 0.000000 0.040000
v 0.530000 -0.160000 0.040000
v 0.000000 -0.160000 0.040000
v -0.530000 -0.160000 0.040000
v -0.680000 0.000000 0.300000
v -0.360400 0.110000 0.300000
v 0.000000 0.160000 0.300000
v 0.360400 0.110000 0.300000
v 0.680000 0.000000 0.300000
v 0.360400 -0.110000 0.300000
v 0.000000 -0.110000 0.300000
v -0.360400 -0.110000 0.300000
v -0.045000 0.000000 0.500000
v -0.023850 0.035000 0.500000
v 0.000000 0.035000 0.500000
v 0.023850 0.035000 0.500000
v 0.045000 0.000000 0.500000
v 0.023850 -0.035000 0.500000
v 0.000000 -0.035000 0.500000
v -0.023850 -0.035000 0.500000
vn 0.564975 -0.324547 0.758599
f 1//1 2//1 10//1
vn 0.277624 -0.702601 0.655192
f 1//2 10//2 9//2
vn 0.000000 -0.952424 0.304776
f 2//3 3//3 11//3
vn 0.102866 -0.954085 0.281319
f 2//4 11//4 10//4
vn 0.000000 -0.987441 0.157991
f 3//5 4//5 12//5
vn -0.102150 -0.947442 0.303181
f 3//6 12//6 11//6
vn -0.380705 -0.218694 0.898464
f 4//7 5//7 13//7
vn -0.313941 -0.794512 0.519799
f 4//8 13//8 12//8
vn -0.564975 0.324547 0.758599
f 5//9 6//9 14//9
vn -0.277624 0.702601 0.655192
f 5//10 14//10 13//10
vn 0.000000 0.987441 0.157991
f 6//11 7//11 15//11
vn 0.000000 0.987441 0.157991
f 6//12 15//12 14//12
vn 0.000000 0.987441 0.157991
f 7//13 8//13 16//13
vn 0.000000 0.987441 0.157991
f 7//14 16//14 15//14
vn 0.380705 0.218694 0.898464
f 8//15 1//15 9//15
vn 0.313941 0.794512 0.519799
f 8//16 9//16 16//16
vn 0.352213 -0.891369 0.285320
f 9//17 10//17 18//17
vn 0.305722 -0.898059 0.316264
f 9//18 18//18 17//18
vn 0.102430 -0.950041 0.294840
f 10//19 11//19 19//19
vn 0.181691 -0.962961 0.199233
f 10//20 19//20 18//20
vn -0.105822 -0.981501 0.159554
f 11//21 12//21 20//21
vn -0.177344 -0.939925 0.291701
f 11//22 20//22 19//22
vn -0.343504 -0.869329 0.355349
f 12//23 13//23 21//23
vn -0.310759 -0.912854 0.264815
f 12//24 21//24 20//24
vn -0.352213 0.891369 0.285320
f 13//25 14//25 22//25
vn -0.305722 0.898059 0.316264
f 13//26 22//26 21//26
vn 0.000000 0.994692 0.102899
f 14//27 15//27 23//27
vn 0.000000 0.994692 0.102899
f 14//28 23//28 22//28
vn 0.000000 0.994692 0.102899
f 15//29 16//29 24//29
vn 0.000000 0.994692 0.102899
f 15//30 24//30 23//30
vn 0.343504 0.869329 0.355349
f 16//31 9//31 17//31
vn 0.310759 0.912854 0.264815
f 16//32 17//32 24//32
vn 0.300008 -0.881274 -0.365173
f 17//33 18//33 26//33
vn 0.302110 -0.877766 -0.371828
f 17//34 26//34 25//34
vn 0.173434 -0.919201 -0.353539
f 18//35 19//35 27//35
vn 0.132325 -0.953798 -0.269739
f 18//36 27//36 26//36
vn -0.177098 -0.938619 -0.296026
f 19//37 20//37 28//37
vn -0.128415 -0.925618 -0.356007
f 19//38 28//38 27//38
vn -0.299561 -0.879961 -0.368690
f 20//39 21//39 29//39
vn -0.302776 -0.879702 -0.366676
f 20//40 29//40 28//40
vn -0.300008 0.881274 -0.365173
f 21//41 22//41 30//41
vn -0.302110 0.877766 -0.371828
f 21//42 30//42 29//42
vn 0.000000 0.982006 -0.188847
f 22//43 23//43 31//43
vn 0.000000 0.982006 -0.188847
f 22//44 31//44 30//44
vn 0.000000 0.982006 -0.188847
f 23//45 24//45 32//45
vn 0.000000 0.982006 -0.188847
f 23//46 32//46 31//46
vn 0.299561 0.879961 -0.368690
f 24//47 17//47 25//47
vn 0.302776 0.879702 -0.366676
f 24//48 25//48 32//48
vn 0.241633 -0.702053 -0.669877
f 25//49 26//49 34//49
vn 0.295581 -0.178616 -0.938471
f 25//50 34//50 33//50
vn 0.116841 -0.842190 -0.526369
f 26//51 27//51 35//51
vn 0.000000 -0.936329 -0.351123
f 26//52 35//52 34//52
vn -0.117696 -0.848352 -0.516185
f 27//53 28//53 36//53
vn 0.000000 -0.847998 -0.529999
f 27//54 36//54 35//54
vn -0.226326 -0.657580 -0.718585
f 28//55 29//55 37//55
vn -0.446731 -0.269953 -0.852969
f 28//56 37//56 36//56
vn -0.241633 0.702053 -0.669877
f 29//57 30//57 38//57
vn -0.295581 0.178616 -0.938471
f 29//58 38//58 37//58
vn 0.000000 0.936329 -0.351123
f 30//59 31//59 39//59
vn 0.000000 0.936329 -0.351123
f 30//60 39//60 38//60
vn 0.000000 0.936329 -0.351123
f 31//61 32//61 40//61
vn 0.000000 0.936329 -0.351123
f 31//62 40//62 39//62
vn 0.226326 0.657580 -0.718585
f 32//63 25//63 33//63
vn 0.446731 0.269953 -0.852969
f 32//64 33//64 40//64
vn 0.000000 0.000000 1.000000
f 1//65 3//65 2//65
vn 0.000000 0.000000 -1.000000
f 33//66 34//66 35//66
vn 0.000000 0.000000 1.000000
f 1//67 4//67 3//67
vn 0.000000 0.000000 -1.000000
f 33//68 35//68 36//68
vn 0.000000 0.000000 1.000000
f 1//69 5//69 4//69
vn 0.000000 0.000000 -1.000000
f 33//70 36//70 37//70
vn -0.000000 0.000000 1.000000
f 1//71 6//71 5//71
vn 0.000000 0.000000 -1.000000
f 33//72 37//72 38//72
vn 0.000000 0.000000 1.000000
f 1//73 7//73 6//73
vn 0.000000 0.000000 -1.000000
f 33//74 38//74 39//74
vn 0.000000 0.000000 1.000000
f 1//75 8//75 7//75
vn 0.000000 0.000000 -1.000000
f 33//76 39//76 40//76
