o spar
s off
v -0.700000 0.000000 -0.500000
v -0.371000 0.720000 -0.500000
v 0.000000 0.800000 -0.500000
v 0.371000 0.720000 -0.500000
v 0.700000 0.000000 -0.500000
v 0.371000 -0.720000 -0.500000
v 0.000000 -0.720000 -0.500000
v -0.371000 -0.720000 -0.500000
v -0.850000 0.000000 -0.280000
v -0.450500 0.780000 -0.280000
v 0.000000 0.900000 -0.280000
v 0.450500 0.780000 -0.280000
v 0.850000 0.000000 -0.280000
v 0.450500 -0.780000 -0.280000
v 0.000000 -0.780000 -0.280000
v -0.450500 -0.780000 -0.280000
v -0.590000 0.000000 0.300000
v -0.312700 0.530000 0.300000
v 0.000000 0.630000 0.300000
v 0.312700 0.530000 0.300000
v 0.590000 0.000000 0.300000
v 0.312700 -0.530000 0.300000
v 0.000000 -0.530000 0.300000
v -0.312700 -0.530000 0.300000
v -0.350000 0.000000 0.500000
v -0.185500 0.340000 0.500000
v 0.000000 0.340000 0.500000
v 0.185500 0.340000 0.500000
v 0.350000 0.000000 0.500000
v 0.185500 -0.340000 0.500000
v 0.000000 -0.340000 0.500000
v -0.185500 -0.340000 0.500000
vn 0.831896 -0.380130 0.404289
f 1//1 2//1 10//1
vn 0.760901 -0.389718 0.518796
f 1//2 10//2 9//2
vn 0.192629 -0.893317 0.406053
f 2//3 3//3 11//3
vn 0.242446 -0.910181 0.335842
f 2//4 11//4 10//4
vn -0.199400 -0.924717 0.324251
f 3//5 4//5 12//5
vn -0.235665 -0.884725 0.402148
f 3//6 12//6 11//6
vn -0.772973 -0.353206 0.527027
f 4//7 5//7 13//7
vn -0.812880 -0.416340 0.407293
f 4//8 13//8 12//8
vn -0.831896 0.380130 0.404289
f 5//9 6//9 14//9
vn -0.760901 0.389718 0.518796
f 5//10 14//10 13//10
vn 0.000000 0.964764 0.263117
f 6//11 7//11 15//11
vn 0.000000 0.964764 0.263117
f 6//12 15//12 14//12
vn 0.000000 0.964764 0.263117
f 7//13 8//13 16//13
vn 0.000000 0.964764 0.263117
f 7//14 16//14 15//14
vn 0.772973 0.353206 0.527027
f 8//15 1//15 9//15
vn 0.812880 0.416340 0.407293
f 8//16 9//16 16//16
vn 0.824109 -0.422092 -0.377733
f 9//17 10//17 18//17
vn 0.823471 -0.430846 -0.369142
f 9//18 18//18 17//18
vn 0.234739 -0.881251 -0.410237
f 10//19 11//19 19//19
vn 0.274290 -0.857704 -0.434867
f 10//20 19//20 18//20
vn -0.232259 -0.871940 -0.431018
f 11//21 12//21 20//21
vn -0.278454 -0.870726 -0.405338
f 11//22 20//22 19//22
vn -0.826678 -0.423408 -0.370580
f 12//23 13//23 21//23
vn -0.819723 -0.428885 -0.379619
f 12//24 21//24 20//24
vn -0.824109 0.422092 -0.377733
f 13//25 14//25 22//25
vn -0.823471 0.430846 -0.369142
f 13//26 22//26 21//26
vn 0.000000 0.918324 -0.395829
f 14//27 15//27 23//27
vn 0.000000 0.918324 -0.395829
f 14//28 23//28 22//28
vn 0.000000 0.918324 -0.395829
f 15//29 16//29 24//29
vn 0.000000 0.918324 -0.395829
f 15//30 24//30 23//30
vn 0.826678 0.423408 -0.370580
f 16//31 9//31 17//31
vn 0.819723 0.428885 -0.379619
f 16//32 17//32 24//32
vn 0.625300 -0.327162 -0.708495
f 17//33 18//33 26//33
vn 0.611522 -0.295869 -0.733827
f 17//34 26//34 25//34
vn 0.178638 -0.558601 -0.809971
f 18//35 19//35 27//35
vn 0.000000 -0.724999 -0.688749
f 18//36 27//36 26//36
vn -0.205040 -0.641160 -0.739508
f 19//37 20//37 28//37
vn 0.000000 -0.567733 -0.823213
f 19//38 28//38 27//38
vn -0.607037 -0.317607 -0.728445
f 20//39 21//39 29//39
vn -0.640908 -0.310086 -0.702199
f 20//40 29//40 28//40
vn -0.625300 0.327162 -0.708495
f 21//41 22//41 30//41
vn -0.611522 0.295869 -0.733827
f 21//42 30//42 29//42
vn 0.000000 0.724999 -0.688749
f 22//43 23//43 31//43
vn 0.000000 0.724999 -0.688749
f 22//44 31//44 30//44
vn 0.000000 0.724999 -0.688749
f 23//45 24//45 32//45
vn 0.000000 0.724999 -0.688749
f 23//46 32//46 31//46
vn 0.607037 0.317607 -0.728445
f 24//47 17//47 25//47
vn 0.640908 0.310086 -0.702199
f 24//48 25//48 32//48
vn 0.000000 0.000000 1.000000
f 1//49 3//49 2//49
vn 0.000000 0.000000 -1.000000
f 25//50 26//50 27//50
vn 0.000000 0.000000 1.000000
f 1//51 4//51 3//51
vn 0.000000 0.000000 -1.000000
f 25//52 27//52 28//52
vn 0.000000 0.000000 1.000000
f 1//53 5//53 4//53
vn 0.000000 0.000000 -1.000000
f 25//54 28//54 29//54
vn -0.000000 0.000000 1.000000
f 1//55 6//55 5//55
vn 0.000000 0.000000 -1.000000
f 25//56 29//56 30//56
vn 0.000000 0.000000 1.000000
f 1//57 7//57 6//57
vn 0.000000 0.000000 -1.000000
f 25//58 30//58 31//58
vn 0.000000 0.000000 1.000000
f 1//59 8//59 7//59
vn 0.000000 0.000000 -1.000000
f 25//60 31//60 32//60
