# Blender 4.4.3
# www.blender.org
mtllib Signboard.mtl
o 円柱
v 0.000000 -3.000000 -0.500000
v 0.000000 3.000000 -0.500000
v 0.097545 -3.000000 -0.490393
v 0.097545 3.000000 -0.490393
v 0.191342 -3.000000 -0.461940
v 0.191342 3.000000 -0.461940
v 0.277785 -3.000000 -0.415735
v 0.277785 3.000000 -0.415735
v 0.353553 -3.000000 -0.353553
v 0.353553 3.000000 -0.353553
v 0.415735 -3.000000 -0.277785
v 0.415735 3.000000 -0.277785
v 0.461940 -3.000000 -0.191342
v 0.461940 3.000000 -0.191342
v 0.490393 -3.000000 -0.097545
v 0.490393 3.000000 -0.097545
v 0.500000 -3.000000 0.000000
v 0.500000 3.000000 0.000000
v 0.490393 -3.000000 0.097545
v 0.490393 3.000000 0.097545
v 0.461940 -3.000000 0.191342
v 0.461940 3.000000 0.191342
v 0.415735 -3.000000 0.277785
v 0.415735 3.000000 0.277785
v 0.353553 -3.000000 0.353553
v 0.353553 3.000000 0.353553
v 0.277785 -3.000000 0.415735
v 0.277785 3.000000 0.415735
v 0.191342 -3.000000 0.461940
v 0.191342 3.000000 0.461940
v 0.097545 -3.000000 0.490393
v 0.097545 3.000000 0.490393
v 0.000000 -3.000000 0.500000
v 0.000000 3.000000 0.500000
v -0.097545 -3.000000 0.490393
v -0.097545 3.000000 0.490393
v -0.191342 -3.000000 0.461940
v -0.191342 3.000000 0.461940
v -0.277785 -3.000000 0.415735
v -0.277785 3.000000 0.415735
v -0.353553 -3.000000 0.353553
v -0.353553 3.000000 0.353553
v -0.415735 -3.000000 0.277785
v -0.415735 3.000000 0.277785
v -0.461940 -3.000000 0.191342
v -0.461940 3.000000 0.191342
v -0.490393 -3.000000 0.097545
v -0.490393 3.000000 0.097545
v -0.500000 -3.000000 0.000000
v -0.500000 3.000000 0.000000
v -0.490393 -3.000000 -0.097545
v -0.490393 3.000000 -0.097545
v -0.461940 -3.000000 -0.191342
v -0.461940 3.000000 -0.191342
v -0.415735 -3.000000 -0.277785
v -0.415735 3.000000 -0.277785
v -0.353553 -3.000000 -0.353553
v -0.353553 3.000000 -0.353553
v -0.277785 -3.000000 -0.415735
v -0.277785 3.000000 -0.415735
v -0.191342 -3.000000 -0.461940
v -0.191342 3.000000 -0.461940
v -0.097545 -3.000000 -0.490393
v -0.097545 3.000000 -0.490393
v 0.522942 -0.129343 2.932480
v 0.522942 2.391820 2.932480
v 0.522942 -0.129343 -2.932480
v 0.522942 2.391820 -2.932480
v 0.622942 -0.129343 2.932480
v 0.622942 2.391820 2.932480
v 0.622942 -0.129343 -2.932480
v 0.622942 2.391820 -2.932480
v 0.522942 -0.368761 -0.001060
v 0.522942 2.631239 -0.001060
v 0.622942 -0.368761 -0.001060
v 0.622942 2.631239 -0.001060
v 0.522942 2.631239 -1.500530
v 0.622942 -0.368761 -1.500530
v 0.522942 -0.368761 -1.500530
v 0.622942 2.631239 -1.500530
v 0.522942 2.631239 -2.250265
v 0.622942 -0.368761 -2.250265
v 0.522942 -0.368761 -2.250265
v 0.622942 2.631239 -2.250265
v 0.522942 -0.368761 1.499470
v 0.622942 2.631239 1.499470
v 0.522942 2.631239 1.499470
v 0.622942 -0.368761 1.499470
v 0.522942 -0.368761 2.249735
v 0.622942 2.631239 2.249735
v 0.522942 2.631239 2.249735
v 0.622942 -0.368761 2.249735
vn 0.0980 -0.0000 -0.9952
vn 0.2903 -0.0000 -0.9569
vn 0.4714 -0.0000 -0.8819
vn 0.6344 -0.0000 -0.7730
vn 0.7730 -0.0000 -0.6344
vn 0.8819 -0.0000 -0.4714
vn 0.9569 -0.0000 -0.2903
vn 0.9952 -0.0000 -0.0980
vn 0.9952 -0.0000 0.0980
vn 0.9569 -0.0000 0.2903
vn 0.8819 -0.0000 0.4714
vn 0.7730 -0.0000 0.6344
vn 0.6344 -0.0000 0.7730
vn 0.4714 -0.0000 0.8819
vn 0.2903 -0.0000 0.9569
vn 0.0980 -0.0000 0.9952
vn -0.0980 -0.0000 0.9952
vn -0.2903 -0.0000 0.9569
vn -0.4714 -0.0000 0.8819
vn -0.6344 -0.0000 0.7730
vn -0.7730 -0.0000 0.6344
vn -0.8819 -0.0000 0.4714
vn -0.9569 -0.0000 0.2903
vn -0.9952 -0.0000 0.0980
vn -0.9952 -0.0000 -0.0980
vn -0.9569 -0.0000 -0.2903
vn -0.8819 -0.0000 -0.4714
vn -0.7730 -0.0000 -0.6344
vn -0.6344 -0.0000 -0.7730
vn -0.4714 -0.0000 -0.8819
vn -0.0000 1.0000 -0.0000
vn -0.2903 -0.0000 -0.9569
vn -0.0980 -0.0000 -0.9952
vn -0.0000 -1.0000 -0.0000
vn -1.0000 -0.0000 -0.0000
vn -0.0000 -0.0000 -1.0000
vn 1.0000 -0.0000 -0.0000
vn -0.0000 -0.0000 1.0000
vn -0.0000 -0.9437 0.3309
vn -0.0000 0.9437 0.3309
vn -0.0000 0.9436 -0.3311
vn -0.0000 -0.9436 -0.3311
vt 0.845850 0.000171
vt 0.507715 0.021304
vt 0.507715 0.000171
vt 0.845850 0.021304
vt 0.507715 0.042438
vt 0.845850 0.042438
vt 0.507715 0.063571
vt 0.845850 0.063571
vt 0.507715 0.084705
vt 0.845850 0.084705
vt 0.507715 0.105838
vt 0.845850 0.105838
vt 0.507715 0.126972
vt 0.845850 0.126972
vt 0.507715 0.148105
vt 0.845850 0.148105
vt 0.507715 0.169238
vt 0.845850 0.169238
vt 0.507715 0.190372
vt 0.845850 0.190372
vt 0.507715 0.211505
vt 0.845850 0.211505
vt 0.507715 0.232639
vt 0.845850 0.232639
vt 0.507715 0.253772
vt 0.845850 0.253772
vt 0.507715 0.274906
vt 0.845850 0.274906
vt 0.507715 0.296039
vt 0.845850 0.296039
vt 0.507715 0.317172
vt 0.845850 0.317172
vt 0.507715 0.338306
vt 0.845850 0.338306
vt 0.507715 0.359439
vt 0.845850 0.359439
vt 0.507715 0.380573
vt 0.845850 0.380573
vt 0.507715 0.401706
vt 0.845850 0.401706
vt 0.507715 0.422839
vt 0.845850 0.422839
vt 0.507715 0.443973
vt 0.845850 0.443973
vt 0.507715 0.465106
vt 0.845850 0.465106
vt 0.507715 0.486240
vt 0.845850 0.486240
vt 0.507715 0.507373
vt 0.845850 0.507373
vt 0.507715 0.528507
vt 0.845850 0.528507
vt 0.507715 0.549640
vt 0.845850 0.549640
vt 0.507715 0.570773
vt 0.845850 0.570773
vt 0.507715 0.591907
vt 0.845850 0.591907
vt 0.507715 0.613040
vt 0.845850 0.613040
vt 0.507715 0.634174
vt 0.437968 0.682990
vt 0.640398 0.791191
vt 0.532197 0.993622
vt 0.845850 0.634174
vt 0.507715 0.655307
vt 0.845850 0.655307
vt 0.507715 0.676441
vt 0.323217 0.822397
vt 0.145785 0.676783
vt 0.000171 0.854215
vt 0.338306 0.148112
vt 0.169238 0.169238
vt 0.169238 0.148112
vt 0.338306 0.169238
vt 0.051178 0.201791
vt 0.051178 0.588607
vt 0.456366 0.643888
vt 0.051178 0.643888
vt 0.169238 0.676441
vt 0.000171 0.507373
vt 0.000171 0.486232
vt 0.507373 0.486232
vt 0.456366 0.588607
vt 0.456366 0.312276
vt 0.507373 0.422810
vt 0.456366 0.422761
vt 0.000171 0.380558
vt 0.051178 0.422761
vt 0.000171 0.422810
vt 0.051178 0.312276
vt 0.338306 0.042453
vt 0.169238 0.084735
vt 0.169238 0.042453
vt 0.456366 0.257033
vt 0.051178 0.257033
vt 0.000171 0.359432
vt 0.507373 0.380558
vt 0.338306 0.084735
vt 0.169238 0.126986
vt 0.507373 0.338306
vt 0.456366 0.201791
vt 0.000171 0.338306
vt 0.338306 0.126986
vt 0.338306 0.021312
vt 0.169238 0.021312
vt 0.507373 0.465091
vt 0.456366 0.533325
vt 0.051178 0.533325
vt 0.000171 0.465091
vt 0.338306 0.000171
vt 0.169238 0.000171
vt 0.500991 0.999829
vt 0.469174 0.999829
vt 0.437968 0.993622
vt 0.408573 0.981446
vt 0.382117 0.963769
vt 0.359619 0.941271
vt 0.341942 0.914816
vt 0.329767 0.885420
vt 0.323559 0.854214
vt 0.323559 0.822397
vt 0.329767 0.791191
vt 0.341943 0.761796
vt 0.359619 0.735341
vt 0.382118 0.712842
vt 0.408573 0.695166
vt 0.469174 0.676783
vt 0.500991 0.676783
vt 0.532197 0.682990
vt 0.561592 0.695166
vt 0.588048 0.712843
vt 0.610546 0.735341
vt 0.628223 0.761796
vt 0.646606 0.822397
vt 0.646606 0.854214
vt 0.640398 0.885420
vt 0.628222 0.914816
vt 0.610546 0.941271
vt 0.588047 0.963769
vt 0.561592 0.981446
vt 0.845850 0.676441
vt 0.006378 0.885420
vt 0.018554 0.914816
vt 0.036231 0.941271
vt 0.058729 0.963769
vt 0.085184 0.981446
vt 0.114580 0.993622
vt 0.145786 0.999829
vt 0.177603 0.999829
vt 0.208809 0.993622
vt 0.238204 0.981446
vt 0.264659 0.963769
vt 0.287157 0.941271
vt 0.304834 0.914816
vt 0.317010 0.885420
vt 0.323217 0.854214
vt 0.317010 0.791191
vt 0.304834 0.761796
vt 0.287157 0.735341
vt 0.264659 0.712843
vt 0.238204 0.695166
vt 0.208809 0.682990
vt 0.177603 0.676783
vt 0.114580 0.682990
vt 0.085184 0.695166
vt 0.058729 0.712843
vt 0.036231 0.735341
vt 0.018554 0.761796
vt 0.006378 0.791191
vt 0.000171 0.822397
vt 0.338306 0.676441
vt 0.507373 0.507373
vt 0.507373 0.359432
s 0
usemtl マテリアル
f 2/1/1 3/2/1 1/3/1
f 4/4/2 5/5/2 3/2/2
f 6/6/3 7/7/3 5/5/3
f 8/8/4 9/9/4 7/7/4
f 10/10/5 11/11/5 9/9/5
f 12/12/6 13/13/6 11/11/6
f 14/14/7 15/15/7 13/13/7
f 16/16/8 17/17/8 15/15/8
f 18/18/9 19/19/9 17/17/9
f 20/20/10 21/21/10 19/19/10
f 22/22/11 23/23/11 21/21/11
f 24/24/12 25/25/12 23/23/12
f 26/26/13 27/27/13 25/25/13
f 28/28/14 29/29/14 27/27/14
f 30/30/15 31/31/15 29/29/15
f 32/32/16 33/33/16 31/31/16
f 34/34/17 35/35/17 33/33/17
f 36/36/18 37/37/18 35/35/18
f 38/38/19 39/39/19 37/37/19
f 40/40/20 41/41/20 39/39/20
f 42/42/21 43/43/21 41/41/21
f 44/44/22 45/45/22 43/43/22
f 46/46/23 47/47/23 45/45/23
f 48/48/24 49/49/24 47/47/24
f 50/50/25 51/51/25 49/49/25
f 52/52/26 53/53/26 51/51/26
f 54/54/27 55/55/27 53/53/27
f 56/56/28 57/57/28 55/55/28
f 58/58/29 59/59/29 57/57/29
f 60/60/30 61/61/30 59/59/30
f 38/62/31 22/63/31 6/64/31
f 62/65/32 63/66/32 61/61/32
f 64/67/33 1/68/33 63/66/33
f 31/69/34 47/70/34 63/71/34
f 81/72/35 67/73/35 83/74/35
f 68/75/36 71/76/36 67/73/36
f 92/77/37 70/78/37 69/79/37
f 70/78/38 65/80/38 69/79/38
f 92/77/39 65/81/39 89/82/39
f 91/83/40 70/78/40 90/84/40
f 80/85/31 74/86/31 76/87/31
f 79/88/34 75/89/34 73/90/34
f 80/85/37 75/89/37 78/91/37
f 87/92/35 73/93/35 85/94/35
f 84/95/37 78/91/37 82/96/37
f 83/97/34 78/91/34 79/88/34
f 84/95/31 77/98/31 80/85/31
f 74/99/35 79/100/35 73/93/35
f 68/101/41 84/95/41 72/102/41
f 71/76/42 83/97/42 67/103/42
f 72/102/37 82/96/37 71/76/37
f 77/104/35 83/74/35 79/100/35
f 91/105/35 85/94/35 89/106/35
f 76/87/31 87/107/31 86/108/31
f 73/90/34 88/109/34 85/110/34
f 76/87/37 88/109/37 75/89/37
f 66/111/35 89/106/35 65/112/35
f 86/108/31 91/83/31 90/84/31
f 85/110/34 92/77/34 89/82/34
f 86/108/37 92/77/37 88/109/37
f 2/1/1 4/4/1 3/2/1
f 4/4/2 6/6/2 5/5/2
f 6/6/3 8/8/3 7/7/3
f 8/8/4 10/10/4 9/9/4
f 10/10/5 12/12/5 11/11/5
f 12/12/6 14/14/6 13/13/6
f 14/14/7 16/16/7 15/15/7
f 16/16/8 18/18/8 17/17/8
f 18/18/9 20/20/9 19/19/9
f 20/20/10 22/22/10 21/21/10
f 22/22/11 24/24/11 23/23/11
f 24/24/12 26/26/12 25/25/12
f 26/26/13 28/28/13 27/27/13
f 28/28/14 30/30/14 29/29/14
f 30/30/15 32/32/15 31/31/15
f 32/32/16 34/34/16 33/33/16
f 34/34/17 36/36/17 35/35/17
f 36/36/18 38/38/18 37/37/18
f 38/38/19 40/40/19 39/39/19
f 40/40/20 42/42/20 41/41/20
f 42/42/21 44/44/21 43/43/21
f 44/44/22 46/46/22 45/45/22
f 46/46/23 48/48/23 47/47/23
f 48/48/24 50/50/24 49/49/24
f 50/50/25 52/52/25 51/51/25
f 52/52/26 54/54/26 53/53/26
f 54/54/27 56/56/27 55/55/27
f 56/56/28 58/58/28 57/57/28
f 58/58/29 60/60/29 59/59/29
f 60/60/30 62/65/30 61/61/30
f 6/64/31 4/113/31 2/114/31
f 2/114/31 64/115/31 62/116/31
f 62/116/31 60/117/31 58/118/31
f 58/118/31 56/119/31 54/120/31
f 54/120/31 52/121/31 50/122/31
f 50/122/31 48/123/31 46/124/31
f 46/124/31 44/125/31 42/126/31
f 42/126/31 40/127/31 38/62/31
f 38/62/31 36/128/31 34/129/31
f 34/129/31 32/130/31 30/131/31
f 30/131/31 28/132/31 26/133/31
f 26/133/31 24/134/31 22/63/31
f 22/63/31 20/135/31 18/136/31
f 18/136/31 16/137/31 14/138/31
f 14/138/31 12/139/31 10/140/31
f 10/140/31 8/141/31 6/64/31
f 6/64/31 2/114/31 62/116/31
f 62/116/31 58/118/31 54/120/31
f 54/120/31 50/122/31 46/124/31
f 46/124/31 42/126/31 38/62/31
f 38/62/31 34/129/31 30/131/31
f 30/131/31 26/133/31 22/63/31
f 22/63/31 18/136/31 14/138/31
f 14/138/31 10/140/31 6/64/31
f 6/64/31 62/116/31 54/120/31
f 54/120/31 46/124/31 38/62/31
f 38/62/31 30/131/31 22/63/31
f 22/63/31 14/138/31 6/64/31
f 6/64/31 54/120/31 38/62/31
f 62/65/32 64/67/32 63/66/32
f 64/67/33 2/142/33 1/68/33
f 63/71/34 1/143/34 3/144/34
f 3/144/34 5/145/34 7/146/34
f 7/146/34 9/147/34 11/148/34
f 11/148/34 13/149/34 15/150/34
f 15/150/34 17/151/34 19/152/34
f 19/152/34 21/153/34 23/154/34
f 23/154/34 25/155/34 27/156/34
f 27/156/34 29/157/34 31/69/34
f 31/69/34 33/158/34 35/159/34
f 35/159/34 37/160/34 39/161/34
f 39/161/34 41/162/34 43/163/34
f 43/163/34 45/164/34 47/70/34
f 47/70/34 49/165/34 51/166/34
f 51/166/34 53/167/34 55/168/34
f 55/168/34 57/169/34 59/170/34
f 59/170/34 61/171/34 63/71/34
f 63/71/34 3/144/34 7/146/34
f 7/146/34 11/148/34 15/150/34
f 15/150/34 19/152/34 23/154/34
f 23/154/34 27/156/34 31/69/34
f 31/69/34 35/159/34 39/161/34
f 39/161/34 43/163/34 47/70/34
f 47/70/34 51/166/34 55/168/34
f 55/168/34 59/170/34 63/71/34
f 63/71/34 7/146/34 15/150/34
f 15/150/34 23/154/34 31/69/34
f 31/69/34 39/161/34 47/70/34
f 47/70/34 55/168/34 63/71/34
f 63/71/34 15/150/34 31/69/34
f 81/72/35 68/75/35 67/73/35
f 68/75/36 72/102/36 71/76/36
f 92/77/37 90/84/37 70/78/37
f 70/78/38 66/172/38 65/80/38
f 92/77/39 69/79/39 65/81/39
f 91/83/40 66/173/40 70/78/40
f 80/85/31 77/98/31 74/86/31
f 79/88/34 78/91/34 75/89/34
f 80/85/37 76/87/37 75/89/37
f 87/92/35 74/99/35 73/93/35
f 84/95/37 80/85/37 78/91/37
f 83/97/34 82/96/34 78/91/34
f 84/95/31 81/174/31 77/98/31
f 74/99/35 77/104/35 79/100/35
f 68/101/41 81/174/41 84/95/41
f 71/76/42 82/96/42 83/97/42
f 72/102/37 84/95/37 82/96/37
f 77/104/35 81/72/35 83/74/35
f 91/105/35 87/92/35 85/94/35
f 76/87/31 74/86/31 87/107/31
f 73/90/34 75/89/34 88/109/34
f 76/87/37 86/108/37 88/109/37
f 66/111/35 91/105/35 89/106/35
f 86/108/31 87/107/31 91/83/31
f 85/110/34 88/109/34 92/77/34
f 86/108/37 90/84/37 92/77/37
