# Blender 4.4.3
# www.blender.org
mtllib SignboardC.mtl
o 立方体
v -5.000000 -2.500000 0.250000
v -5.000000 2.500000 0.250000
v -5.000000 -2.500000 -0.250000
v -5.000000 2.500000 -0.250000
v 5.000000 -2.500000 0.250000
v 5.000000 2.500000 0.250000
v 5.000000 -2.500000 -0.250000
v 5.000000 2.500000 -0.250000
v 4.500000 -2.500000 -0.711583
v 4.500000 2.500000 -0.711583
v 4.548773 -2.500000 -0.706779
v 4.548773 2.500000 -0.706779
v 4.595671 -2.500000 -0.692553
v 4.595671 2.500000 -0.692553
v 4.638892 -2.500000 -0.669450
v 4.638892 2.500000 -0.669450
v 4.676776 -2.500000 -0.638360
v 4.676776 2.500000 -0.638360
v 4.707867 -2.500000 -0.600476
v 4.707867 2.500000 -0.600476
v 4.730969 -2.500000 -0.557254
v 4.730969 2.500000 -0.557254
v 4.745196 -2.500000 -0.510356
v 4.745196 2.500000 -0.510356
v 4.750000 -2.500000 -0.461583
v 4.750000 2.500000 -0.461583
v 4.745196 -2.500000 -0.412810
v 4.745196 2.500000 -0.412810
v 4.730969 -2.500000 -0.365912
v 4.730969 2.500000 -0.365912
v 4.707867 -2.500000 -0.322690
v 4.707867 2.500000 -0.322690
v 4.676776 -2.500000 -0.284806
v 4.676776 2.500000 -0.284806
v 4.638892 -2.500000 -0.253716
v 4.638892 2.500000 -0.253716
v 4.595671 -2.500000 -0.230613
v 4.595671 2.500000 -0.230613
v 4.548773 -2.500000 -0.216387
v 4.548773 2.500000 -0.216387
v 4.500000 -2.500000 -0.211583
v 4.500000 2.500000 -0.211583
v 4.451227 -2.500000 -0.216387
v 4.451227 2.500000 -0.216387
v 4.404329 -2.500000 -0.230613
v 4.404329 2.500000 -0.230613
v 4.361107 -2.500000 -0.253716
v 4.361107 2.500000 -0.253716
v 4.323223 -2.500000 -0.284806
v 4.323223 2.500000 -0.284806
v 4.292132 -2.500000 -0.322690
v 4.292132 2.500000 -0.322690
v 4.269030 -2.500000 -0.365912
v 4.269030 2.500000 -0.365912
v 4.254804 -2.500000 -0.412810
v 4.254804 2.500000 -0.412810
v 4.250000 -2.500000 -0.461583
v 4.250000 2.500000 -0.461583
v 4.254804 -2.500000 -0.510356
v 4.254804 2.500000 -0.510356
v 4.269030 -2.500000 -0.557254
v 4.269030 2.500000 -0.557254
v 4.292132 -2.500000 -0.600476
v 4.292132 2.500000 -0.600476
v 4.323223 -2.500000 -0.638360
v 4.323223 2.500000 -0.638360
v 4.361107 -2.500000 -0.669450
v 4.361107 2.500000 -0.669450
v 4.404329 -2.500000 -0.692553
v 4.404329 2.500000 -0.692553
v 4.451227 -2.500000 -0.706779
v 4.451227 2.500000 -0.706779
v -4.500000 -2.500000 -0.711583
v -4.500000 2.500000 -0.711583
v -4.451227 -2.500000 -0.706779
v -4.451227 2.500000 -0.706779
v -4.404329 -2.500000 -0.692553
v -4.404329 2.500000 -0.692553
v -4.361107 -2.500000 -0.669450
v -4.361107 2.500000 -0.669450
v -4.323223 -2.500000 -0.638360
v -4.323223 2.500000 -0.638360
v -4.292132 -2.500000 -0.600476
v -4.292132 2.500000 -0.600476
v -4.269030 -2.500000 -0.557254
v -4.269030 2.500000 -0.557254
v -4.254804 -2.500000 -0.510356
v -4.254804 2.500000 -0.510356
v -4.250000 -2.500000 -0.461583
v -4.250000 2.500000 -0.461583
v -4.254804 -2.500000 -0.412810
v -4.254804 2.500000 -0.412810
v -4.269030 -2.500000 -0.365912
v -4.269030 2.500000 -0.365912
v -4.292132 -2.500000 -0.322690
v -4.292132 2.500000 -0.322690
v -4.323223 -2.500000 -0.284806
v -4.323223 2.500000 -0.284806
v -4.361107 -2.500000 -0.253716
v -4.361107 2.500000 -0.253716
v -4.404329 -2.500000 -0.230613
v -4.404329 2.500000 -0.230613
v -4.451227 -2.500000 -0.216387
v -4.451227 2.500000 -0.216387
v -4.500000 -2.500000 -0.211583
v -4.500000 2.500000 -0.211583
v -4.548773 -2.500000 -0.216387
v -4.548773 2.500000 -0.216387
v -4.595671 -2.500000 -0.230613
v -4.595671 2.500000 -0.230613
v -4.638892 -2.500000 -0.253716
v -4.638892 2.500000 -0.253716
v -4.676776 -2.500000 -0.284806
v -4.676776 2.500000 -0.284806
v -4.707867 -2.500000 -0.322690
v -4.707867 2.500000 -0.322690
v -4.730969 -2.500000 -0.365912
v -4.730969 2.500000 -0.365912
v -4.745196 -2.500000 -0.412810
v -4.745196 2.500000 -0.412810
v -4.750000 -2.500000 -0.461583
v -4.750000 2.500000 -0.461583
v -4.745196 -2.500000 -0.510356
v -4.745196 2.500000 -0.510356
v -4.730969 -2.500000 -0.557254
v -4.730969 2.500000 -0.557254
v -4.707867 -2.500000 -0.600476
v -4.707867 2.500000 -0.600476
v -4.676776 -2.500000 -0.638360
v -4.676776 2.500000 -0.638360
v -4.638892 -2.500000 -0.669450
v -4.638892 2.500000 -0.669450
v -4.595671 -2.500000 -0.692553
v -4.595671 2.500000 -0.692553
v -4.548773 -2.500000 -0.706779
v -4.548773 2.500000 -0.706779
vn -1.0000 -0.0000 -0.0000
vn -0.0000 -0.0000 -1.0000
vn 1.0000 -0.0000 -0.0000
vn -0.0000 -0.0000 1.0000
vn -0.0000 -1.0000 -0.0000
vn -0.0000 1.0000 -0.0000
vn 0.0980 -0.0000 -0.9952
vn 0.2903 -0.0000 -0.9569
vn 0.4714 -0.0000 -0.8819
vn 0.6344 -0.0000 -0.7730
vn 0.7730 -0.0000 -0.6344
vn 0.8819 -0.0000 -0.4714
vn 0.9569 -0.0000 -0.2903
vn 0.9952 -0.0000 -0.0980
vn 0.9952 -0.0000 0.0980
vn 0.9569 -0.0000 0.2903
vn 0.8819 -0.0000 0.4714
vn 0.7730 -0.0000 0.6344
vn 0.6344 -0.0000 0.7730
vn 0.4714 -0.0000 0.8819
vn 0.2903 -0.0000 0.9569
vn 0.0980 -0.0000 0.9952
vn -0.0980 -0.0000 0.9952
vn -0.2903 -0.0000 0.9569
vn -0.4714 -0.0000 0.8819
vn -0.6344 -0.0000 0.7730
vn -0.7730 -0.0000 0.6344
vn -0.8819 -0.0000 0.4714
vn -0.9569 -0.0000 0.2903
vn -0.9952 -0.0000 0.0980
vn -0.9952 -0.0000 -0.0980
vn -0.9569 -0.0000 -0.2903
vn -0.8819 -0.0000 -0.4714
vn -0.7730 -0.0000 -0.6344
vn -0.6344 -0.0000 -0.7730
vn -0.4714 -0.0000 -0.8819
vn -0.2903 -0.0000 -0.9569
vn -0.0980 -0.0000 -0.9952
vt 0.356553 0.075954
vt 0.292446 0.140061
vt 0.292446 0.075954
vt 0.356553 0.140061
vt 0.292446 0.204168
vt 0.356553 0.204168
vt 0.292446 0.268275
vt 0.845461 0.966809
vt 0.092474 0.558670
vt 0.845479 0.550337
vt 0.228339 0.268275
vt 0.228339 0.204168
vt 0.420660 0.204168
vt 0.356553 0.268275
vt 0.549089 0.075954
vt 0.420875 0.083968
vt 0.420875 0.075954
vt 0.549089 0.083968
vt 0.420875 0.091981
vt 0.549089 0.091981
vt 0.420875 0.099995
vt 0.549089 0.099995
vt 0.420875 0.108008
vt 0.549089 0.108008
vt 0.420875 0.116021
vt 0.549089 0.116021
vt 0.420875 0.124035
vt 0.549089 0.124035
vt 0.420875 0.132048
vt 0.549089 0.132048
vt 0.420875 0.140061
vt 0.549089 0.140061
vt 0.420875 0.148075
vt 0.549089 0.148075
vt 0.420875 0.156088
vt 0.549089 0.156088
vt 0.420875 0.164101
vt 0.549089 0.164101
vt 0.420875 0.172115
vt 0.549089 0.172115
vt 0.420875 0.180128
vt 0.549089 0.180128
vt 0.420875 0.188141
vt 0.549089 0.188141
vt 0.420875 0.196155
vt 0.549089 0.196155
vt 0.420875 0.204168
vt 0.549089 0.204168
vt 0.420875 0.212182
vt 0.549089 0.212182
vt 0.420875 0.220195
vt 0.549089 0.220195
vt 0.420875 0.228208
vt 0.549089 0.228208
vt 0.420875 0.236222
vt 0.549089 0.236222
vt 0.420875 0.244235
vt 0.549089 0.244235
vt 0.420875 0.252248
vt 0.549089 0.252248
vt 0.420875 0.260262
vt 0.549089 0.260262
vt 0.420875 0.268275
vt 0.549089 0.268275
vt 0.420875 0.276289
vt 0.549089 0.276289
vt 0.420875 0.284302
vt 0.549089 0.284302
vt 0.420875 0.292315
vt 0.549089 0.292315
vt 0.420875 0.300329
vt 0.549089 0.300329
vt 0.420875 0.308342
vt 0.549089 0.308342
vt 0.420875 0.316355
vt 0.517136 0.334951
vt 0.593893 0.375978
vt 0.552865 0.452736
vt 0.549089 0.316355
vt 0.420875 0.324369
vt 0.549089 0.324369
vt 0.420875 0.332382
vt 0.350832 0.387811
vt 0.283553 0.332597
vt 0.228339 0.399876
vt 0.677517 0.075954
vt 0.549304 0.083968
vt 0.549304 0.075954
vt 0.677517 0.083968
vt 0.549304 0.091981
vt 0.677517 0.091981
vt 0.549304 0.099995
vt 0.677517 0.099995
vt 0.549304 0.108008
vt 0.677517 0.108008
vt 0.549304 0.116021
vt 0.677517 0.116021
vt 0.549304 0.124035
vt 0.677517 0.124035
vt 0.549304 0.132048
vt 0.677517 0.132048
vt 0.549304 0.140061
vt 0.677517 0.140061
vt 0.549304 0.148075
vt 0.677517 0.148075
vt 0.549304 0.156088
vt 0.677517 0.156088
vt 0.549304 0.164101
vt 0.677517 0.164101
vt 0.549304 0.172115
vt 0.677517 0.172115
vt 0.549304 0.180128
vt 0.677517 0.180128
vt 0.549304 0.188141
vt 0.677517 0.188141
vt 0.549304 0.196155
vt 0.677517 0.196155
vt 0.549304 0.204168
vt 0.677517 0.204168
vt 0.549304 0.212182
vt 0.677517 0.212182
vt 0.549304 0.220195
vt 0.677517 0.220195
vt 0.549304 0.228208
vt 0.677517 0.228208
vt 0.549304 0.236222
vt 0.677517 0.236222
vt 0.549304 0.244235
vt 0.677517 0.244235
vt 0.549304 0.252248
vt 0.677517 0.252248
vt 0.549304 0.260262
vt 0.677517 0.260262
vt 0.549304 0.268275
vt 0.677517 0.268275
vt 0.549304 0.276289
vt 0.677517 0.276289
vt 0.549304 0.284302
vt 0.677517 0.284302
vt 0.549304 0.292315
vt 0.677517 0.292315
vt 0.549304 0.300329
vt 0.677517 0.300329
vt 0.549304 0.308342
vt 0.677517 0.308342
vt 0.549304 0.316355
vt 0.639843 0.334951
vt 0.716601 0.375978
vt 0.675573 0.452736
vt 0.677517 0.316355
vt 0.549304 0.324369
vt 0.677517 0.324369
vt 0.549304 0.332382
vt 0.473539 0.387811
vt 0.406261 0.332597
vt 0.351047 0.399876
vt 0.092456 0.975142
vt 0.420660 0.268275
vt 0.541033 0.455090
vt 0.528968 0.455090
vt 0.517136 0.452736
vt 0.505989 0.448119
vt 0.495958 0.441416
vt 0.487427 0.432886
vt 0.480725 0.422854
vt 0.476108 0.411708
vt 0.473754 0.399876
vt 0.473754 0.387811
vt 0.476108 0.375978
vt 0.480725 0.364832
vt 0.487427 0.354801
vt 0.495958 0.346270
vt 0.505989 0.339568
vt 0.528968 0.332597
vt 0.541033 0.332597
vt 0.552865 0.334951
vt 0.564011 0.339568
vt 0.574043 0.346270
vt 0.582574 0.354801
vt 0.589276 0.364832
vt 0.596247 0.387811
vt 0.596247 0.399876
vt 0.593893 0.411708
vt 0.589276 0.422854
vt 0.582574 0.432886
vt 0.574043 0.441416
vt 0.564011 0.448119
vt 0.549089 0.332382
vt 0.230693 0.411708
vt 0.235310 0.422854
vt 0.242012 0.432886
vt 0.250543 0.441416
vt 0.260574 0.448119
vt 0.271720 0.452736
vt 0.283553 0.455090
vt 0.295618 0.455090
vt 0.307450 0.452736
vt 0.318596 0.448119
vt 0.328628 0.441416
vt 0.337158 0.432886
vt 0.343861 0.422854
vt 0.348478 0.411708
vt 0.350832 0.399876
vt 0.348478 0.375978
vt 0.343861 0.364832
vt 0.337158 0.354801
vt 0.328628 0.346270
vt 0.318596 0.339568
vt 0.307450 0.334951
vt 0.295618 0.332597
vt 0.271720 0.334951
vt 0.260574 0.339568
vt 0.250543 0.346270
vt 0.242012 0.354801
vt 0.235310 0.364832
vt 0.230693 0.375978
vt 0.228339 0.387811
vt 0.663740 0.455090
vt 0.651676 0.455090
vt 0.639843 0.452736
vt 0.628697 0.448119
vt 0.618666 0.441416
vt 0.610135 0.432886
vt 0.603432 0.422854
vt 0.598815 0.411708
vt 0.596462 0.399876
vt 0.596462 0.387811
vt 0.598815 0.375978
vt 0.603432 0.364832
vt 0.610135 0.354801
vt 0.618666 0.346270
vt 0.628697 0.339568
vt 0.651676 0.332597
vt 0.663740 0.332597
vt 0.675573 0.334951
vt 0.686719 0.339568
vt 0.696750 0.346270
vt 0.705281 0.354801
vt 0.711984 0.364832
vt 0.718954 0.387811
vt 0.718954 0.399876
vt 0.716601 0.411708
vt 0.711984 0.422854
vt 0.705281 0.432886
vt 0.696750 0.441416
vt 0.686719 0.448119
vt 0.677517 0.332382
vt 0.353400 0.411708
vt 0.358017 0.422854
vt 0.364720 0.432886
vt 0.373251 0.441416
vt 0.383282 0.448119
vt 0.394428 0.452736
vt 0.406261 0.455090
vt 0.418325 0.455090
vt 0.430158 0.452736
vt 0.441304 0.448119
vt 0.451335 0.441416
vt 0.459866 0.432886
vt 0.466569 0.422854
vt 0.471186 0.411708
vt 0.473539 0.399876
vt 0.471186 0.375978
vt 0.466569 0.364832
vt 0.459866 0.354801
vt 0.451335 0.346270
vt 0.441304 0.339568
vt 0.430158 0.334951
vt 0.418325 0.332597
vt 0.394428 0.334951
vt 0.383282 0.339568
vt 0.373251 0.346270
vt 0.364720 0.354801
vt 0.358017 0.364832
vt 0.353400 0.375978
vt 0.351047 0.387811
s 0
usemtl マテリアル
f 2/1/1 3/2/1 1/3/1
f 4/4/2 7/5/2 3/2/2
f 8/6/3 5/7/3 7/5/3
f 6/8/4 1/9/4 5/10/4
f 7/5/5 1/11/5 3/12/5
f 4/13/6 6/14/6 8/6/6
f 10/15/7 11/16/7 9/17/7
f 12/18/8 13/19/8 11/16/8
f 14/20/9 15/21/9 13/19/9
f 16/22/10 17/23/10 15/21/10
f 18/24/11 19/25/11 17/23/11
f 20/26/12 21/27/12 19/25/12
f 22/28/13 23/29/13 21/27/13
f 24/30/14 25/31/14 23/29/14
f 26/32/15 27/33/15 25/31/15
f 28/34/16 29/35/16 27/33/16
f 30/36/17 31/37/17 29/35/17
f 32/38/18 33/39/18 31/37/18
f 34/40/19 35/41/19 33/39/19
f 36/42/20 37/43/20 35/41/20
f 38/44/21 39/45/21 37/43/21
f 40/46/22 41/47/22 39/45/22
f 42/48/23 43/49/23 41/47/23
f 44/50/24 45/51/24 43/49/24
f 46/52/25 47/53/25 45/51/25
f 48/54/26 49/55/26 47/53/26
f 50/56/27 51/57/27 49/55/27
f 52/58/28 53/59/28 51/57/28
f 54/60/29 55/61/29 53/59/29
f 56/62/30 57/63/30 55/61/30
f 58/64/31 59/65/31 57/63/31
f 60/66/32 61/67/32 59/65/32
f 62/68/33 63/69/33 61/67/33
f 64/70/34 65/71/34 63/69/34
f 66/72/35 67/73/35 65/71/35
f 68/74/36 69/75/36 67/73/36
f 46/76/6 30/77/6 14/78/6
f 70/79/37 71/80/37 69/75/37
f 72/81/38 9/82/38 71/80/38
f 39/83/5 55/84/5 71/85/5
f 74/86/7 75/87/7 73/88/7
f 76/89/8 77/90/8 75/87/8
f 78/91/9 79/92/9 77/90/9
f 80/93/10 81/94/10 79/92/10
f 82/95/11 83/96/11 81/94/11
f 84/97/12 85/98/12 83/96/12
f 86/99/13 87/100/13 85/98/13
f 88/101/14 89/102/14 87/100/14
f 90/103/15 91/104/15 89/102/15
f 92/105/16 93/106/16 91/104/16
f 94/107/17 95/108/17 93/106/17
f 96/109/18 97/110/18 95/108/18
f 98/111/19 99/112/19 97/110/19
f 100/113/20 101/114/20 99/112/20
f 102/115/21 103/116/21 101/114/21
f 104/117/22 105/118/22 103/116/22
f 106/119/23 107/120/23 105/118/23
f 108/121/24 109/122/24 107/120/24
f 110/123/25 111/124/25 109/122/25
f 112/125/26 113/126/26 111/124/26
f 114/127/27 115/128/27 113/126/27
f 116/129/28 117/130/28 115/128/28
f 118/131/29 119/132/29 117/130/29
f 120/133/30 121/134/30 119/132/30
f 122/135/31 123/136/31 121/134/31
f 124/137/32 125/138/32 123/136/32
f 126/139/33 127/140/33 125/138/33
f 128/141/34 129/142/34 127/140/34
f 130/143/35 131/144/35 129/142/35
f 132/145/36 133/146/36 131/144/36
f 110/147/6 94/148/6 78/149/6
f 134/150/37 135/151/37 133/146/37
f 136/152/38 73/153/38 135/151/38
f 103/154/5 119/155/5 135/156/5
f 2/1/1 4/4/1 3/2/1
f 4/4/2 8/6/2 7/5/2
f 8/6/3 6/14/3 5/7/3
f 6/8/4 2/157/4 1/9/4
f 7/5/5 5/7/5 1/11/5
f 4/13/6 2/158/6 6/14/6
f 10/15/7 12/18/7 11/16/7
f 12/18/8 14/20/8 13/19/8
f 14/20/9 16/22/9 15/21/9
f 16/22/10 18/24/10 17/23/10
f 18/24/11 20/26/11 19/25/11
f 20/26/12 22/28/12 21/27/12
f 22/28/13 24/30/13 23/29/13
f 24/30/14 26/32/14 25/31/14
f 26/32/15 28/34/15 27/33/15
f 28/34/16 30/36/16 29/35/16
f 30/36/17 32/38/17 31/37/17
f 32/38/18 34/40/18 33/39/18
f 34/40/19 36/42/19 35/41/19
f 36/42/20 38/44/20 37/43/20
f 38/44/21 40/46/21 39/45/21
f 40/46/22 42/48/22 41/47/22
f 42/48/23 44/50/23 43/49/23
f 44/50/24 46/52/24 45/51/24
f 46/52/25 48/54/25 47/53/25
f 48/54/26 50/56/26 49/55/26
f 50/56/27 52/58/27 51/57/27
f 52/58/28 54/60/28 53/59/28
f 54/60/29 56/62/29 55/61/29
f 56/62/30 58/64/30 57/63/30
f 58/64/31 60/66/31 59/65/31
f 60/66/32 62/68/32 61/67/32
f 62/68/33 64/70/33 63/69/33
f 64/70/34 66/72/34 65/71/34
f 66/72/35 68/74/35 67/73/35
f 68/74/36 70/79/36 69/75/36
f 14/78/6 12/159/6 10/160/6
f 10/160/6 72/161/6 70/162/6
f 70/162/6 68/163/6 66/164/6
f 66/164/6 64/165/6 62/166/6
f 62/166/6 60/167/6 58/168/6
f 58/168/6 56/169/6 54/170/6
f 54/170/6 52/171/6 50/172/6
f 50/172/6 48/173/6 46/76/6
f 46/76/6 44/174/6 42/175/6
f 42/175/6 40/176/6 38/177/6
f 38/177/6 36/178/6 34/179/6
f 34/179/6 32/180/6 30/77/6
f 30/77/6 28/181/6 26/182/6
f 26/182/6 24/183/6 22/184/6
f 22/184/6 20/185/6 18/186/6
f 18/186/6 16/187/6 14/78/6
f 14/78/6 10/160/6 70/162/6
f 70/162/6 66/164/6 62/166/6
f 62/166/6 58/168/6 54/170/6
f 54/170/6 50/172/6 46/76/6
f 46/76/6 42/175/6 38/177/6
f 38/177/6 34/179/6 30/77/6
f 30/77/6 26/182/6 22/184/6
f 22/184/6 18/186/6 14/78/6
f 14/78/6 70/162/6 62/166/6
f 62/166/6 54/170/6 46/76/6
f 46/76/6 38/177/6 30/77/6
f 30/77/6 22/184/6 14/78/6
f 14/78/6 62/166/6 46/76/6
f 70/79/37 72/81/37 71/80/37
f 72/81/38 10/188/38 9/82/38
f 71/85/5 9/189/5 11/190/5
f 11/190/5 13/191/5 15/192/5
f 15/192/5 17/193/5 19/194/5
f 19/194/5 21/195/5 23/196/5
f 23/196/5 25/197/5 27/198/5
f 27/198/5 29/199/5 31/200/5
f 31/200/5 33/201/5 35/202/5
f 35/202/5 37/203/5 39/83/5
f 39/83/5 41/204/5 43/205/5
f 43/205/5 45/206/5 47/207/5
f 47/207/5 49/208/5 51/209/5
f 51/209/5 53/210/5 55/84/5
f 55/84/5 57/211/5 59/212/5
f 59/212/5 61/213/5 63/214/5
f 63/214/5 65/215/5 67/216/5
f 67/216/5 69/217/5 71/85/5
f 71/85/5 11/190/5 15/192/5
f 15/192/5 19/194/5 23/196/5
f 23/196/5 27/198/5 31/200/5
f 31/200/5 35/202/5 39/83/5
f 39/83/5 43/205/5 47/207/5
f 47/207/5 51/209/5 55/84/5
f 55/84/5 59/212/5 63/214/5
f 63/214/5 67/216/5 71/85/5
f 71/85/5 15/192/5 23/196/5
f 23/196/5 31/200/5 39/83/5
f 39/83/5 47/207/5 55/84/5
f 55/84/5 63/214/5 71/85/5
f 71/85/5 23/196/5 39/83/5
f 74/86/7 76/89/7 75/87/7
f 76/89/8 78/91/8 77/90/8
f 78/91/9 80/93/9 79/92/9
f 80/93/10 82/95/10 81/94/10
f 82/95/11 84/97/11 83/96/11
f 84/97/12 86/99/12 85/98/12
f 86/99/13 88/101/13 87/100/13
f 88/101/14 90/103/14 89/102/14
f 90/103/15 92/105/15 91/104/15
f 92/105/16 94/107/16 93/106/16
f 94/107/17 96/109/17 95/108/17
f 96/109/18 98/111/18 97/110/18
f 98/111/19 100/113/19 99/112/19
f 100/113/20 102/115/20 101/114/20
f 102/115/21 104/117/21 103/116/21
f 104/117/22 106/119/22 105/118/22
f 106/119/23 108/121/23 107/120/23
f 108/121/24 110/123/24 109/122/24
f 110/123/25 112/125/25 111/124/25
f 112/125/26 114/127/26 113/126/26
f 114/127/27 116/129/27 115/128/27
f 116/129/28 118/131/28 117/130/28
f 118/131/29 120/133/29 119/132/29
f 120/133/30 122/135/30 121/134/30
f 122/135/31 124/137/31 123/136/31
f 124/137/32 126/139/32 125/138/32
f 126/139/33 128/141/33 127/140/33
f 128/141/34 130/143/34 129/142/34
f 130/143/35 132/145/35 131/144/35
f 132/145/36 134/150/36 133/146/36
f 78/149/6 76/218/6 74/219/6
f 74/219/6 136/220/6 134/221/6
f 134/221/6 132/222/6 130/223/6
f 130/223/6 128/224/6 126/225/6
f 126/225/6 124/226/6 122/227/6
f 122/227/6 120/228/6 118/229/6
f 118/229/6 116/230/6 114/231/6
f 114/231/6 112/232/6 110/147/6
f 110/147/6 108/233/6 106/234/6
f 106/234/6 104/235/6 102/236/6
f 102/236/6 100/237/6 98/238/6
f 98/238/6 96/239/6 94/148/6
f 94/148/6 92/240/6 90/241/6
f 90/241/6 88/242/6 86/243/6
f 86/243/6 84/244/6 82/245/6
f 82/245/6 80/246/6 78/149/6
f 78/149/6 74/219/6 134/221/6
f 134/221/6 130/223/6 126/225/6
f 126/225/6 122/227/6 118/229/6
f 118/229/6 114/231/6 110/147/6
f 110/147/6 106/234/6 102/236/6
f 102/236/6 98/238/6 94/148/6
f 94/148/6 90/241/6 86/243/6
f 86/243/6 82/245/6 78/149/6
f 78/149/6 134/221/6 126/225/6
f 126/225/6 118/229/6 110/147/6
f 110/147/6 102/236/6 94/148/6
f 94/148/6 86/243/6 78/149/6
f 78/149/6 126/225/6 110/147/6
f 134/150/37 136/152/37 135/151/37
f 136/152/38 74/247/38 73/153/38
f 135/156/5 73/248/5 75/249/5
f 75/249/5 77/250/5 79/251/5
f 79/251/5 81/252/5 83/253/5
f 83/253/5 85/254/5 87/255/5
f 87/255/5 89/256/5 91/257/5
f 91/257/5 93/258/5 95/259/5
f 95/259/5 97/260/5 99/261/5
f 99/261/5 101/262/5 103/154/5
f 103/154/5 105/263/5 107/264/5
f 107/264/5 109/265/5 111/266/5
f 111/266/5 113/267/5 115/268/5
f 115/268/5 117/269/5 119/155/5
f 119/155/5 121/270/5 123/271/5
f 123/271/5 125/272/5 127/273/5
f 127/273/5 129/274/5 131/275/5
f 131/275/5 133/276/5 135/156/5
f 135/156/5 75/249/5 79/251/5
f 79/251/5 83/253/5 87/255/5
f 87/255/5 91/257/5 95/259/5
f 95/259/5 99/261/5 103/154/5
f 103/154/5 107/264/5 111/266/5
f 111/266/5 115/268/5 119/155/5
f 119/155/5 123/271/5 127/273/5
f 127/273/5 131/275/5 135/156/5
f 135/156/5 79/251/5 87/255/5
f 87/255/5 95/259/5 103/154/5
f 103/154/5 111/266/5 119/155/5
f 119/155/5 127/273/5 135/156/5
f 135/156/5 87/255/5 103/154/5
