# Small stone carrying the Poly Haven Rock 09 CC0 scan
o field_pebble
v -0.262866 0.272208 0.000000
vt 0.237134 0.500000
vn -0.459668 0.718231 0.522350
v -0.425325 0.000000 0.231322
vt 0.074675 0.731322
vn -0.459668 0.718231 0.522350
v 0.000000 0.168234 0.374286
vt 0.500000 0.874286
vn -0.459668 0.718231 0.522350
f 1/1/1 2/2/2 3/3/3
v -0.262866 0.272208 0.000000
vt 0.237134 0.500000
vn -0.000000 0.963514 0.267658
v 0.000000 0.168234 0.374286
vt 0.500000 0.874286
vn -0.000000 0.963514 0.267658
v 0.262866 0.272208 0.000000
vt 0.762866 0.500000
vn -0.000000 0.963514 0.267658
f 4/4/4 5/5/5 6/6/6
v -0.262866 0.272208 0.000000
vt 0.237134 0.500000
vn 0.000000 0.963514 -0.267658
v 0.262866 0.272208 0.000000
vt 0.762866 0.500000
vn 0.000000 0.963514 -0.267658
v 0.000000 0.168234 -0.374286
vt 0.500000 0.125714
vn 0.000000 0.963514 -0.267658
f 7/7/7 8/8/8 9/9/9
v -0.262866 0.272208 0.000000
vt 0.237134 0.500000
vn -0.459668 0.718231 -0.522350
v 0.000000 0.168234 -0.374286
vt 0.500000 0.125714
vn -0.459668 0.718231 -0.522350
v -0.425325 0.000000 -0.231322
vt 0.074675 0.268678
vn -0.459668 0.718231 -0.522350
f 10/10/10 11/11/11 12/12/12
v -0.262866 0.272208 0.000000
vt 0.237134 0.500000
vn -0.858695 0.512488 0.000000
v -0.425325 0.000000 -0.231322
vt 0.074675 0.268678
vn -0.858695 0.512488 0.000000
v -0.425325 0.000000 0.231322
vt 0.074675 0.731322
vn -0.858695 0.512488 0.000000
f 13/13/13 14/14/14 15/15/15
v 0.262866 0.272208 0.000000
vt 0.762866 0.500000
vn 0.459668 0.718231 0.522350
v 0.000000 0.168234 0.374286
vt 0.500000 0.874286
vn 0.459668 0.718231 0.522350
v 0.425325 0.000000 0.231322
vt 0.925325 0.731322
vn 0.459668 0.718231 0.522350
f 16/16/16 17/17/17 18/18/18
v 0.000000 0.168234 0.374286
vt 0.500000 0.874286
vn -0.318613 0.000000 0.947885
v -0.425325 0.000000 0.231322
vt 0.074675 0.731322
vn -0.318613 0.000000 0.947885
v 0.000000 -0.168234 0.374286
vt 0.500000 0.874286
vn -0.318613 0.000000 0.947885
f 19/19/19 20/20/20 21/21/21
v -0.425325 0.000000 0.231322
vt 0.074675 0.731322
vn -0.858695 -0.512488 -0.000000
v -0.425325 0.000000 -0.231322
vt 0.074675 0.268678
vn -0.858695 -0.512488 -0.000000
v -0.262866 -0.272208 0.000000
vt 0.237134 0.500000
vn -0.858695 -0.512488 -0.000000
f 22/22/22 23/23/23 24/24/24
v -0.425325 0.000000 -0.231322
vt 0.074675 0.268678
vn -0.318613 0.000000 -0.947885
v 0.000000 0.168234 -0.374286
vt 0.500000 0.125714
vn -0.318613 0.000000 -0.947885
v 0.000000 -0.168234 -0.374286
vt 0.500000 0.125714
vn -0.318613 0.000000 -0.947885
f 25/25/25 26/26/26 27/27/27
v 0.000000 0.168234 -0.374286
vt 0.500000 0.125714
vn 0.459668 0.718231 -0.522350
v 0.262866 0.272208 0.000000
vt 0.762866 0.500000
vn 0.459668 0.718231 -0.522350
v 0.425325 0.000000 -0.231322
vt 0.925325 0.268678
vn 0.459668 0.718231 -0.522350
f 28/28/28 29/29/29 30/30/30
v 0.262866 -0.272208 0.000000
vt 0.762866 0.500000
vn 0.459668 -0.718231 0.522350
v 0.425325 0.000000 0.231322
vt 0.925325 0.731322
vn 0.459668 -0.718231 0.522350
v 0.000000 -0.168234 0.374286
vt 0.500000 0.874286
vn 0.459668 -0.718231 0.522350
f 31/31/31 32/32/32 33/33/33
v 0.262866 -0.272208 0.000000
vt 0.762866 0.500000
vn 0.000000 -0.963514 0.267658
v 0.000000 -0.168234 0.374286
vt 0.500000 0.874286
vn 0.000000 -0.963514 0.267658
v -0.262866 -0.272208 0.000000
vt 0.237134 0.500000
vn 0.000000 -0.963514 0.267658
f 34/34/34 35/35/35 36/36/36
v 0.262866 -0.272208 0.000000
vt 0.762866 0.500000
vn -0.000000 -0.963514 -0.267658
v -0.262866 -0.272208 0.000000
vt 0.237134 0.500000
vn -0.000000 -0.963514 -0.267658
v 0.000000 -0.168234 -0.374286
vt 0.500000 0.125714
vn -0.000000 -0.963514 -0.267658
f 37/37/37 38/38/38 39/39/39
v 0.262866 -0.272208 0.000000
vt 0.762866 0.500000
vn 0.459668 -0.718231 -0.522350
v 0.000000 -0.168234 -0.374286
vt 0.500000 0.125714
vn 0.459668 -0.718231 -0.522350
v 0.425325 0.000000 -0.231322
vt 0.925325 0.268678
vn 0.459668 -0.718231 -0.522350
f 40/40/40 41/41/41 42/42/42
v 0.262866 -0.272208 0.000000
vt 0.762866 0.500000
vn 0.858695 -0.512488 0.000000
v 0.425325 0.000000 -0.231322
vt 0.925325 0.268678
vn 0.858695 -0.512488 0.000000
v 0.425325 0.000000 0.231322
vt 0.925325 0.731322
vn 0.858695 -0.512488 0.000000
f 43/43/43 44/44/44 45/45/45
v 0.000000 -0.168234 0.374286
vt 0.500000 0.874286
vn 0.318613 -0.000000 0.947885
v 0.425325 0.000000 0.231322
vt 0.925325 0.731322
vn 0.318613 -0.000000 0.947885
v 0.000000 0.168234 0.374286
vt 0.500000 0.874286
vn 0.318613 -0.000000 0.947885
f 46/46/46 47/47/47 48/48/48
v -0.262866 -0.272208 0.000000
vt 0.237134 0.500000
vn -0.459668 -0.718231 0.522350
v 0.000000 -0.168234 0.374286
vt 0.500000 0.874286
vn -0.459668 -0.718231 0.522350
v -0.425325 0.000000 0.231322
vt 0.074675 0.731322
vn -0.459668 -0.718231 0.522350
f 49/49/49 50/50/50 51/51/51
v 0.000000 -0.168234 -0.374286
vt 0.500000 0.125714
vn -0.459668 -0.718231 -0.522350
v -0.262866 -0.272208 0.000000
vt 0.237134 0.500000
vn -0.459668 -0.718231 -0.522350
v -0.425325 0.000000 -0.231322
vt 0.074675 0.268678
vn -0.459668 -0.718231 -0.522350
f 52/52/52 53/53/53 54/54/54
v 0.425325 0.000000 -0.231322
vt 0.925325 0.268678
vn 0.318613 0.000000 -0.947885
v 0.000000 -0.168234 -0.374286
vt 0.500000 0.125714
vn 0.318613 0.000000 -0.947885
v 0.000000 0.168234 -0.374286
vt 0.500000 0.125714
vn 0.318613 0.000000 -0.947885
f 55/55/55 56/56/56 57/57/57
v 0.425325 0.000000 0.231322
vt 0.925325 0.731322
vn 0.858695 0.512488 0.000000
v 0.425325 0.000000 -0.231322
vt 0.925325 0.268678
vn 0.858695 0.512488 0.000000
v 0.262866 0.272208 0.000000
vt 0.762866 0.500000
vn 0.858695 0.512488 0.000000
f 58/58/58 59/59/59 60/60/60
