# Blender 4.4.1
# www.blender.org
mtllib ki.mtl
o 立方体
v -0.205005 -0.992865 0.205005
v -0.132727 -0.407135 0.132727
v -0.205005 -0.992865 -0.205005
v -0.132727 -0.407135 -0.132727
v 0.205005 -0.992865 0.205005
v 0.132727 -0.407135 0.132727
v 0.205005 -0.992865 -0.205005
v 0.132727 -0.407135 -0.132727
v 0.202839 0.632400 -0.489695
v 0.489695 0.632400 -0.202839
v 0.489695 0.632400 0.202839
v 0.202839 0.632400 0.489695
v -0.202839 0.632400 0.489695
v -0.489695 0.632400 0.202839
v -0.489695 0.632400 -0.202839
v -0.202839 0.632400 -0.489695
v -0.000000 1.335108 0.000000
v 0.290117 0.074228 -0.700404
v 0.700404 0.074228 -0.290117
v 0.700404 0.074228 0.290117
v 0.290117 0.074228 0.700404
v -0.290117 0.074228 0.700404
v -0.700404 0.074228 0.290117
v -0.700404 0.074228 -0.290117
v -0.290117 0.074228 -0.700404
v -0.000000 1.079300 0.000000
v 0.373946 -0.477694 -0.902785
v 0.902785 -0.477694 -0.373946
v 0.902785 -0.477694 0.373946
v 0.373946 -0.477694 0.902785
v -0.373946 -0.477694 0.902785
v -0.902785 -0.477694 0.373946
v -0.902785 -0.477694 -0.373946
v -0.373946 -0.477694 -0.902785
v -0.000000 0.817794 0.000000
vn -0.9925 0.1225 -0.0000
vn -0.0000 0.1225 -0.9925
vn 0.9925 0.1225 -0.0000
vn -0.0000 0.1225 0.9925
vn -0.0000 -1.0000 -0.0000
vn -0.0000 1.0000 -0.0000
vn -0.0000 0.5717 -0.8204
vn 0.5801 0.5717 -0.5801
vn 0.8204 0.5717 -0.0000
vn 0.5801 0.5717 0.5801
vn -0.0000 0.5717 0.8204
vn -0.5801 0.5717 0.5801
vn -0.8204 0.5717 -0.0000
vn -0.5801 0.5717 -0.5801
vt 0.883308 0.749230
vt 0.783176 0.692695
vt 0.868641 0.662516
vt 0.825605 0.585820
vt 0.712344 0.605681
vt 0.759237 0.528117
vt 0.677302 0.496160
vt 0.816939 0.461748
vt 0.883308 0.519451
vt 0.717954 0.686009
vt 0.755313 0.643040
vt 0.784349 0.874726
vt 0.836147 0.999778
vt 0.732551 0.999778
vt 0.909401 0.926524
vt 0.909401 0.822928
vt 0.836147 0.749674
vt 0.732551 0.749674
vt 0.659297 0.822928
vt 0.659297 0.926524
vt 0.358386 0.911205
vt 0.419915 0.762660
vt 0.568461 0.824189
vt 0.179082 0.640608
vt 0.104996 0.819468
vt 0.000222 0.714694
vt 0.253168 0.819468
vt 0.357942 0.714694
vt 0.357942 0.566522
vt 0.253168 0.461748
vt 0.104996 0.461748
vt 0.000222 0.566522
vt 0.446390 0.762216
vt 0.358386 0.549753
vt 0.570848 0.461748
vt 0.230763 0.230763
vt 0.461304 0.135270
vt 0.461304 0.326256
vt 0.326256 0.000222
vt 0.135270 0.000222
vt 0.000222 0.135270
vt 0.000222 0.326256
vt 0.135270 0.461304
vt 0.326256 0.461304
vt 0.849035 0.113656
vt 0.735602 0.387509
vt 0.461748 0.274075
vt 0.792672 0.748837
vt 0.659297 0.584991
vt 0.674985 0.648650
vt 0.568461 0.911205
vt 0.506931 0.972735
vt 0.419915 0.972735
vt 0.358386 0.824189
vt 0.506931 0.762660
vt 0.658853 0.549753
vt 0.658853 0.674211
vt 0.570848 0.762216
vt 0.358386 0.674211
vt 0.446390 0.461748
vt 0.461748 0.113656
vt 0.575182 0.000222
vt 0.735602 0.000222
vt 0.849035 0.274075
vt 0.575182 0.387509
s 0
usemtl マテリアル.001
f 1/1/1 4/2/1 3/3/1
f 4/2/2 7/4/2 3/3/2
f 7/4/3 6/5/3 5/6/3
f 6/5/4 1/7/4 5/6/4
f 7/4/5 1/8/5 3/9/5
f 4/10/6 6/5/6 8/11/6
f 17/12/7 9/13/7 16/14/7
f 9/13/8 17/12/8 10/15/8
f 10/15/9 17/12/9 11/16/9
f 11/16/10 17/12/10 12/17/10
f 12/17/11 17/12/11 13/18/11
f 13/18/12 17/12/12 14/19/12
f 14/19/13 17/12/13 15/20/13
f 15/20/14 17/12/14 16/14/14
f 12/21/5 14/22/5 16/23/5
f 26/24/7 18/25/7 25/26/7
f 18/25/8 26/24/8 19/27/8
f 19/27/9 26/24/9 20/28/9
f 20/28/10 26/24/10 21/29/10
f 21/29/11 26/24/11 22/30/11
f 22/30/12 26/24/12 23/31/12
f 23/31/13 26/24/13 24/32/13
f 24/32/14 26/24/14 25/26/14
f 21/33/5 23/34/5 25/35/5
f 35/36/7 27/37/7 34/38/7
f 27/37/8 35/36/8 28/39/8
f 28/39/9 35/36/9 29/40/9
f 29/40/10 35/36/10 30/41/10
f 30/41/11 35/36/11 31/42/11
f 31/42/12 35/36/12 32/43/12
f 32/43/13 35/36/13 33/44/13
f 33/44/14 35/36/14 34/38/14
f 30/45/5 32/46/5 34/47/5
f 1/1/1 2/48/1 4/2/1
f 4/2/2 8/11/2 7/4/2
f 7/4/3 8/11/3 6/5/3
f 6/5/4 2/49/4 1/7/4
f 7/4/5 5/6/5 1/8/5
f 4/10/6 2/50/6 6/5/6
f 16/23/5 9/51/5 10/52/5
f 10/52/5 11/53/5 12/21/5
f 12/21/5 13/54/5 14/22/5
f 14/22/5 15/55/5 16/23/5
f 16/23/5 10/52/5 12/21/5
f 25/35/5 18/56/5 19/57/5
f 19/57/5 20/58/5 21/33/5
f 21/33/5 22/59/5 23/34/5
f 23/34/5 24/60/5 25/35/5
f 25/35/5 19/57/5 21/33/5
f 34/47/5 27/61/5 28/62/5
f 28/62/5 29/63/5 30/45/5
f 30/45/5 31/64/5 32/46/5
f 32/46/5 33/65/5 34/47/5
f 34/47/5 28/62/5 30/45/5
