# Blender 4.4.1
# www.blender.org
mtllib seaWeed.mtl
o Cube
v 0.050978 5.012537 -0.296834
v 0.050978 -0.608358 -0.500000
v 0.050978 4.407588 -0.207414
v 0.050978 -0.608358 0.500000
v -0.050978 5.012537 -0.296834
v -0.050978 -0.608358 -0.500000
v -0.050978 4.407588 -0.207414
v -0.050978 -0.608358 0.500000
v 0.050978 2.032636 -0.414077
v -0.050978 1.882701 0.197643
v 0.050978 1.882701 0.197643
v -0.050978 2.032636 -0.414077
v -0.050978 2.925457 0.192196
v 0.050978 3.128231 -0.500000
v 0.050978 2.925457 0.192196
v -0.050978 3.128231 -0.500000
v -0.050978 3.750996 0.500000
v 0.050978 3.513896 -0.216409
v 0.050978 3.750996 0.500000
v -0.050978 3.513896 -0.216409
v -0.050978 4.062378 0.306860
v 0.050978 4.062378 -0.104648
v 0.050978 4.062378 0.306860
v -0.050978 4.062378 -0.104648
v 0.050978 2.505466 -0.226210
v 0.050978 2.505466 0.500000
v -0.050978 2.505466 -0.226210
v -0.050978 2.505466 0.500000
v 0.050978 0.637172 -0.500000
v 0.050978 0.637172 0.195851
v -0.050978 0.637172 -0.500000
v -0.050978 0.637172 0.195851
v -0.050978 1.259937 0.500000
v 0.050978 1.259937 -0.136678
v 0.050978 1.259937 0.500000
v -0.050978 1.259937 -0.136678
vn -0.0000 -0.2853 -0.9584
vn -0.0000 0.5363 0.8440
vn -1.0000 -0.0000 -0.0000
vn -0.0000 -1.0000 -0.0000
vn 1.0000 -0.0000 -0.0000
vn -0.0000 -0.1462 -0.9893
vn -0.0000 -0.3379 -0.9412
vn -0.0000 0.4368 0.8996
vn -0.0000 -0.4025 -0.9154
vn -0.0000 0.5911 0.8066
vn -0.0000 0.5924 -0.8056
vn -0.0000 -0.3494 0.9370
vn -0.0000 0.1997 -0.9799
vn -0.0000 0.5271 0.8498
vn -0.0000 -0.4368 0.8996
vn -0.0000 0.3692 -0.9293
vn -0.0000 0.2372 0.9715
vn -0.0000 -0.0000 -1.0000
vn -0.0000 -0.4388 0.8986
vn -0.0000 0.5039 -0.8638
vt 0.785548 0.305162
vt 0.828712 0.329576
vt 0.868090 0.601068
vt 0.833963 0.605871
vt 0.306973 0.680181
vt 0.306973 0.869415
vt 0.008074 0.869415
vt 0.008074 0.680181
vt 0.757625 0.139144
vt 0.871424 0.338973
vt 0.937069 0.654704
vt 0.937069 0.953603
vt 0.638170 0.953603
vt 0.638170 0.654704
vt 0.503851 0.934921
vt 0.534568 0.955632
vt 0.561295 0.991926
vt 0.380852 0.934922
vt 0.906809 0.595732
vt 0.518322 0.312063
vt 0.586978 0.404773
vt 0.599397 0.638555
vt 0.485643 0.636857
vt 0.513425 0.766791
vt 0.596339 0.813148
vt 0.413497 0.804153
vt 0.323122 0.766791
vt 0.611056 0.081717
vt 0.613471 0.170746
vt 0.306973 0.224042
vt 0.306973 0.321835
vt 0.008074 0.321835
vt 0.008074 0.224042
vt 0.639654 0.365630
vt 0.696781 0.433875
vt 0.740049 0.626041
vt 0.640797 0.636752
vt 0.540186 0.841515
vt 0.622021 0.878878
vt 0.415125 0.866713
vt 0.323122 0.841516
vt 0.662623 0.072996
vt 0.682321 0.173531
vt 0.306973 0.419627
vt 0.306973 0.515018
vt 0.008074 0.515018
vt 0.008074 0.419627
vt 0.741690 0.353118
vt 0.802558 0.611455
vt 0.537256 0.902016
vt 0.323122 0.916240
vt 0.726205 0.068791
vt 0.306973 0.619504
vt 0.008074 0.619504
vt 0.306973 0.008074
vt 0.306973 0.125754
vt 0.008074 0.125754
vt 0.008074 0.008074
vt 0.503734 0.008074
vt 0.539268 0.157561
vt 0.403248 0.384792
vt 0.332362 0.358702
vt 0.622021 0.654704
vt 0.622021 0.729428
vt 0.414032 0.729428
vt 0.323122 0.654704
vt 0.404096 0.637264
vt 0.323122 0.638555
s 0
usemtl Material
f 24/1/1 7/2/1 3/3/1 22/4/1
f 23/5/2 1/6/2 5/7/2 21/8/2
f 21/9/3 5/10/3 7/2/3 24/1/3
f 6/11/4 2/12/4 4/13/4 8/14/4
f 22/15/5 3/16/5 1/17/5 23/18/5
f 7/2/6 5/10/6 1/19/6 3/3/6
f 36/20/7 12/21/7 9/22/7 34/23/7
f 34/24/5 9/25/5 11/26/5 35/27/5
f 33/28/3 10/29/3 12/21/3 36/20/3
f 35/30/8 11/31/8 10/32/8 33/33/8
f 27/34/9 16/35/9 14/36/9 25/37/9
f 25/38/5 14/39/5 15/40/5 26/41/5
f 28/42/3 13/43/3 16/35/3 27/34/3
f 26/44/10 15/45/10 13/46/10 28/47/10
f 16/35/11 20/48/11 18/49/11 14/36/11
f 14/39/5 18/50/5 19/51/5 15/40/5
f 13/43/3 17/52/3 20/48/3 16/35/3
f 15/45/12 19/53/12 17/54/12 13/46/12
f 20/48/13 24/1/13 22/4/13 18/49/13
f 18/50/5 22/15/5 23/18/5 19/51/5
f 17/52/3 21/9/3 24/1/3 20/48/3
f 19/53/14 23/5/14 21/8/14 17/54/14
f 11/31/15 26/44/15 28/47/15 10/32/15
f 10/29/3 28/42/3 27/34/3 12/21/3
f 9/25/5 25/38/5 26/41/5 11/26/5
f 12/21/16 27/34/16 25/37/16 9/22/16
f 4/55/17 30/56/17 32/57/17 8/58/17
f 8/59/3 32/60/3 31/61/3 6/62/3
f 2/63/5 29/64/5 30/65/5 4/66/5
f 6/62/18 31/61/18 29/67/18 2/68/18
f 30/56/19 35/30/19 33/33/19 32/57/19
f 32/60/3 33/28/3 36/20/3 31/61/3
f 29/64/5 34/24/5 35/27/5 30/65/5
f 31/61/20 36/20/20 34/23/20 29/67/20
